<svg xmlns="http://www.w3.org/2000/svg" version="1.1" xmlns:xlink="http://www.w3.org/1999/xlink" xmlns:svgjs="http://svgjs.dev/svgjs" viewBox="0 0 1422 800" opacity="0.47"><defs><linearGradient x1="50%" y1="0%" x2="50%" y2="100%" id="ccchaos-grad"><stop stop-color="hsl(182, 100%, 50%)" stop-opacity="1" offset="0%"></stop><stop stop-color="hsl(227, 73%, 53%)" stop-opacity="1" offset="100%"></stop></linearGradient></defs><g stroke-width="1" stroke="url(#ccchaos-grad)" fill="none" stroke-linecap="round"><path d="M732.35 -490.63C740.44 -491.16 748.43 -491.59 756.33 -491.89 764.22 -492.15 772.01 -492.24 779.69 -492.16 787.36 -491.99 794.91 -491.62 802.34 -491.06 809.74 -490.39 817.02 -489.53 824.16 -488.48 831.27 -487.35 838.23 -486.06 845.03 -484.63 851.8 -483.16 858.4 -481.59 864.82 -479.93 871.2 -478.3 877.4 -476.61 883.4 -474.9 892.22 -472.45 908.78 -467.73 916.49 -465.49 923.91 -463.41 937.64 -459.3 943.99 -457.18 950.11 -455.01 961.58 -450.05 967.02 -447.15 972.48 -443.94 983.39 -436.43 989.04 -432.12 995.09 -427.49 1008.46 -417.36 1016.01 -411.96 1021.53 -408.32 1027.41 -404.63 1033.69 -400.9 1040.44 -397.21 1047.65 -393.53 1055.36 -389.85 1063.58 -386.27 1072.34 -382.72 1081.65 -379.21 1091.47 -375.82 1101.85 -372.47 1112.78 -369.16 1124.17 -365.96 1136.06 -362.78 1148.42 -359.62 1161.11 -356.54 1174.18 -353.44 1187.54 -350.3 1201.04 -347.2 1214.69 -344.02 1228.39 -340.76 1241.97 -337.47 1255.39 -334.05 1268.55 -330.5 1281.27 -326.87 1293.5 -323.08 1305.12 -319.11 1315.98 -315.04 1326.01 -310.78 1335.09 -306.33 1343.15 -301.77 1350.09 -297.02 1355.82 -292.1 1362.01 -284.48 1366.11 -268.4 1364.12 -260.03 1361.4 -254.38 1357.63 -248.67 1352.94 -242.91 1347.67 -237.17 1341.79 -231.41 1335.51 -225.65 1329.22 -219.94 1322.95 -214.26 1316.93 -208.61 1311.57 -203.06 1306.92 -197.54 1303.21 -192.08 1300.28 -184.08 1304.48 -168.5 1312.38 -160.9 1320.18 -155.94 1329.86 -151.01 1341.36 -146.09 1354.54 -141.24 1369.26 -136.38 1385.32 -131.51 1402.42 -126.67 1420.33 -121.8 1438.71 -116.88 1457.18 -111.96 1475.41 -106.97 1493.04 -101.9 1509.65 -96.81 1524.93 -91.62 1538.53 -86.33 1550.15 -80.98 1559.52 -75.52 1566.44 -69.94 1570.8 -64.29 1572.49 -58.52 1571.47 -52.62 1567.95 -46.65 1561.95 -40.54 1553.69 -34.31 1543.63 -28 1531.98 -21.57 1519.14 -15.03 1505.77 -8.41 1492.19 -1.68 1478.9 5.15 1466.62 12.05 1455.66 19.04 1446.5 26.13 1439.71 33.26 1435.5 40.48 1434.17 47.76 1435.99 55.08 1440.97 62.47 1449.09 69.91 1460.26 77.37 1474.21 84.89 1490.6 92.43 1509.01 100 1528.9 107.6 1549.71 115.22 1570.78 122.85 1591.47 130.5 1611.11 138.16 1629.07 145.83 1644.75 153.5 1657.61 161.19 1667.27 168.87 1673.36 176.55 1675.65 184.24 1674.19 191.92 1668.94 199.61 1660.12 207.3 1648.23 214.98 1633.59 222.66 1616.79 230.34 1598.69 238.01 1579.86 245.69 1561.08 253.36 1543.32 261.04 1527.15 268.71 1513.31 276.39 1502.55 284.06 1495.24 291.74 1491.76 299.43 1492.42 307.11 1497.18 314.8 1505.93 322.51 1518.42 330.2 1534.16 337.91 1552.54 345.64 1572.88 353.35 1594.35 361.09 1616.05 368.83 1637.13 376.58 1656.68 384.34 1673.85 392.11 1687.96 399.89 1698.33 407.67 1704.49 415.47 1706.25 423.27 1703.42 431.04 1696.18 438.77 1684.93 446.5 1670.08 454.2 1652.3 461.85 1632.36 469.51 1611.07 477.12 1589.32 484.69 1568 492.26 1547.95 499.78 1529.95 507.25 1514.72 514.71 1502.81 522.12 1494.6 529.47 1490.44 536.81 1490.34 544.08 1494.22 551.29 1501.94 558.49 1513.02 565.61 1526.91 572.66 1543.16 579.68 1560.89 586.63 1579.35 593.48 1597.94 600.32 1615.71 607.06 1631.94 613.7 1646.15 620.32 1657.59 626.83 1665.82 633.24 1670.64 639.62 1671.71 645.9 1668.99 652.06 1662.63 658.2 1652.75 664.22 1639.71 670.14 1623.95 676.02 1605.98 681.81 1586.37 687.48 1565.75 693.14 1544.77 698.7 1524.08 704.17 1504.27 709.64 1485.93 715.02 1469.56 720.33 1455.59 725.66 1444.34 730.94 1436.04 736.17 1429.82 744.07 1436.73 759.94 1448.53 767.99 1459.07 773.48 1470.96 779.04 1483.69 784.67 1496.96 790.46 1510.07 796.35 1522.54 802.36 1534.11 808.55 1544.17 814.88 1552.37 821.38 1558.58 828.06 1562.4 834.92 1563.7 841.95 1562.48 849.18 1558.65 856.59 1552.26 864.16 1543.5 871.91 1532.5 879.81 1519.52 887.85 1504.81 896.02 1488.71 904.29 1471.57 912.63 1453.68 921.03 1435.46 929.44 1417.25 937.84 1399.32 946.2 1382.07 954.46 1365.76 962.59 1350.6 970.58 1336.86 978.35 1324.69 985.87 1314.2 993.13 1305.5 1000.06 1298.6 1006.63 1291.88 1015.76 1289.21 1031.22 1292.45 1037.49 1298.43 1042.71 1314.4 1050.51 1323.09 1053.28 1343.61 1060.46 1344.21 1070.25 1337.78 1074.96 1332 1078.81 1325.09 1083.18 1317.15 1088.08 1308.25 1093.57 1298.47 1099.58 1287.92 1106.08 1276.65 1113.07 1264.8 1120.46 1252.48 1128.17 1239.74 1136.15 1226.73 1144.28 1213.56 1152.46 1200.24 1160.61 1186.94 1168.58 1173.74 1176.27 1160.64 1183.6 1147.78 1190.43 1135.22 1196.66 1122.93 1202.27 1111.05 1207.13 1099.59 1211.18 1088.52 1214.47 1077.93 1216.91 1067.83 1218.51 1058.16 1219.4 1048.99 1219.54 1040.29 1219 1032.04 1217.98 1024.25 1216.51 1016.87 1214.69 1009.91 1212.79 1003.32 1210.84 997.07 1208.98 988.36 1206.93 972.64 1206.36 965.41 1208.44 960.85 1211.01 956.37 1214.42 951.95 1218.66 947.66 1223.74 943.38 1229.52 939.07 1235.89 934.84 1242.78 930.55 1249.97 926.17 1257.28 921.82 1264.61 917.36 1271.7 912.77 1278.37 908.18 1284.51 903.44 1289.9 898.53 1294.39 891.06 1299.18 875.21 1301.63 866.81 1299.36 861.11 1296.67 855.23 1293.19 849.18 1289.08 843.08 1284.66 836.82 1280.01 830.38 1275.35 823.91 1271.01 817.28 1267.08 810.49 1263.75 803.68 1261.3 796.71 1259.75 789.59 1259.2 782.46 1259.79 775.19 1261.45 767.79 1264.13 760.37 1267.83 752.83 1272.34 745.17 1277.51 737.5 1283.21 729.72 1289.14 721.82 1295.06 713.93 1300.83 705.99 1306.07 697.99 1310.59 690 1314.31 681.97 1316.96 673.9 1318.44 665.84 1318.78 657.74 1317.86 649.62 1315.71 641.52 1312.49 633.4 1308.22 625.26 1303.06 617.14 1297.26 609.01 1290.93 600.87 1284.31 592.77 1277.67 584.66 1271.17 576.56 1265.01 568.5 1259.44 560.45 1254.56 552.42 1250.49 544.44 1247.4 536.48 1245.28 528.55 1244.14 520.68 1244.03 512.85 1244.82 505.07 1246.4 497.34 1248.75 489.68 1251.61 482.07 1254.83 474.54 1258.31 467.08 1261.78 459.69 1265.03 452.38 1268 445.15 1270.42 438.01 1272.13 430.94 1273.13 423.97 1273.2 417.09 1272.3 410.29 1270.47 403.58 1267.62 396.97 1263.78 390.43 1259.08 383.97 1253.54 377.61 1247.25 371.3 1240.41 365.07 1233.1 358.92 1225.46 352.8 1217.69 346.74 1209.91 340.74 1202.26 334.74 1194.92 328.78 1187.97 322.84 1181.52 316.88 1175.71 310.92 1170.55 304.96 1166.08 298.94 1162.39 292.89 1159.41 286.82 1157.11 280.66 1155.53 274.45 1154.53 268.19 1154.01 261.83 1153.99 255.42 1154.26 248.94 1154.71 242.36 1155.33 235.74 1155.91 229.06 1156.32 222.31 1156.57 215.54 1156.46 208.75 1155.9 201.94 1154.91 195.15 1153.33 188.41 1151.12 181.69 1148.32 175.07 1144.84 168.58 1140.68 162.18 1135.92 155.96 1130.51 149.94 1124.5 144.09 1117.99 138.48 1110.98 133.14 1103.55 128.01 1095.79 123.18 1087.76 118.65 1079.53 114.34 1071.2 110.34 1062.82 106.63 1054.47 103.1 1046.24 99.83 1038.16 96.78 1030.29 93.83 1022.7 91.02 1015.42 88.31 1008.46 85.56 1001.89 82.81 995.69 79.99 989.86 76.97 984.45 73.78 979.39 70.35 974.68 66.57 970.35 62.46 966.31 57.98 962.52 53.05 959.04 47.7 955.73 41.92 952.57 35.68 949.59 29.03 946.66 22.01 943.75 14.62 940.91 6.95 937.99 -0.91 934.98 -8.93 931.92 -16.98 928.69 -24.97 925.26 -32.82 921.71 -40.39 917.91 -47.57 913.85 -54.32 909.61 -60.48 905.09 -65.97 900.28 -70.79 895.25 -74.81 889.94 -77.99 884.34 -80.41 878.53 -81.99 872.45 -82.75 866.11 -82.87 859.57 -82.3 852.8 -81.17 845.82 -79.69 838.67 -77.9 831.33 -75.94 823.84 -74.09 816.22 -72.41 808.46 -71.05 800.6 -70.28 792.65 -70.13 784.62 -70.73 776.53 -72.28 768.38 -74.75 760.21 -78.2 752 -82.7 743.79 -88.14 735.57 -94.48 727.35 -101.66 719.15 -109.49 710.97 -117.82 702.82 -126.49 694.69 -135.25 686.6 -143.89 678.56 -152.21 670.55 -159.96 662.58 -166.92 654.66 -172.96 646.79 -177.86 638.95 -181.49 631.17 -183.85 623.42 -184.82 615.72 -184.39 608.05 -182.75 600.42 -179.89 592.83 -175.96 585.26 -171.28 577.74 -165.96 570.23 -160.27 562.74 -154.59 555.29 -149.09 547.85 -144.05 540.41 -139.83 533 -136.55 525.6 -134.42 518.19 -133.68 510.8 -134.32 503.41 -136.39 496.01 -139.93 488.62 -144.77 481.22 -150.78 473.81 -157.81 466.4 -165.55 458.98 -173.7 451.54 -182.03 444.1 -190.13 436.64 -197.69 429.16 -204.47 421.68 -210.11 414.18 -214.37 406.65 -217.16 399.12 -218.26 391.57 -217.62 384 -215.36 376.43 -211.49 368.87 -206.18 361.35 -199.76 353.82 -192.4 346.31 -184.42 338.83 -176.22 331.36 -168.06 323.91 -160.26 316.48 -153.19 309.07 -147.04 301.68 -142.03 294.33 -138.39 286.99 -136.15 279.68 -135.36 272.41 -136.07 265.15 -138.11 257.93 -141.33 250.76 -145.66 243.6 -150.75 236.49 -156.35 229.43 -162.28 222.38 -168.15 215.39 -173.67 208.46 -178.7 201.54 -182.87 194.68 -185.98 187.89 -187.97 181.11 -188.62 174.4 -187.86 167.75 -185.78 161.12 -182.3 154.56 -177.52 148.07 -171.63 141.59 -164.73 135.19 -157.01 128.85 -148.74 122.52 -140.1 116.26 -131.31 110.07 -122.66 103.88 -114.31 97.75 -106.46 91.69 -99.34 85.62 -93.02 79.6 -87.62 73.64 -83.27 67.66 -79.93 61.72 -77.59 55.82 -76.29 49.9 -75.87 44 -76.22 38.13 -77.31 32.22 -78.9 26.31 -80.81 20.42 -82.99 14.47 -85.15 8.51 -87.14 2.55 -88.89 -3.48 -90.17 -9.53 -90.83 -15.6 -90.89 -21.76 -90.15 -27.94 -88.56 -34.16 -86.19 -40.46 -82.93 -46.8 -78.81 -53.17 -73.94 -59.63 -68.3 -66.11 -61.99 -72.63 -55.14 -79.22 -47.8 -85.83 -40.08 -92.45 -32.14 -99.13 -24.05 -105.81 -15.92 -112.48 -7.89 -119.17 -0.01 -125.83 7.61 -132.46 14.9 -139.07 21.82 -145.63 28.32 -152.1 34.33 -158.54 39.89 -164.87 44.99 -171.09 49.6 -177.23 53.78 -183.24 57.58 -189.11 60.98 -194.88 64.09 -200.48 66.97 -205.93 70.87 -213.84 78.26 -228.65 82.11 -235.57 86.27 -242.21 96.11 -254.74 101.94 -260.72 106.18 -264.67 110.75 -268.56 115.65 -272.41 120.78 -276.3 126.22 -280.18 131.93 -284.07 137.84 -288.04 143.98 -292.04 150.32 -296.08 156.78 -300.23 163.39 -304.44 170.11 -308.69 176.87 -313.07 183.69 -317.49 190.55 -321.96 197.39 -326.52 204.21 -331.12 211.01 -335.72 217.74 -340.38 224.41 -345.03 231.03 -349.63 237.54 -354.24 243.99 -358.77 250.37 -363.21 256.64 -367.6 262.85 -371.86 269 -375.96 275.06 -379.98 281.08 -383.82 287.07 -387.48 293 -391.03 298.92 -394.38 304.85 -397.54 310.74 -400.6 316.66 -403.47 322.62 -406.17 328.58 -408.8 334.6 -411.28 340.68 -413.64 346.81 -415.97 353.01 -418.21 359.3 -420.39 365.64 -422.59 372.09 -424.77 378.63 -426.93 385.25 -429.16 391.97 -431.41 398.8 -433.68 405.7 -436.06 412.71 -438.47 419.82 -440.9 427.01 -443.44 434.29 -445.99 441.67 -448.55 449.12 -451.18 456.65 -453.78 464.26 -456.34 471.93 -458.91 479.68 -461.41 487.49 -463.8 495.35 -466.15 503.27 -468.36 511.24 -470.41 519.25 -472.38 527.3 -474.16 535.39 -475.76 543.51 -477.26 551.66 -478.56 559.83 -479.67 568.02 -480.69 576.23 -481.54 584.45 -482.23 592.7 -482.87 600.94 -483.38 609.19 -483.79 617.46 -484.21 625.72 -484.56 633.97 -484.86 642.23 -485.22 650.49 -485.56 658.72 -485.91 666.97 -486.34 675.2 -486.79 683.41 -487.25 691.62 -487.81 699.81 -488.37 707.97 -488.92 716.13 -489.53 724.25 -490.11 732.34 -490.63" stroke-dasharray="3 7" transform="rotate(0, 711, 400)" opacity="0.77"></path><path d="M691.45 -441.03C698.37 -441.67 705.19 -442.21 711.93 -442.64 718.66 -443.01 725.3 -443.22 731.84 -443.26 738.37 -443.19 744.8 -442.93 751.14 -442.46 757.46 -441.87 763.68 -441.07 769.81 -440.08 775.92 -438.98 781.94 -437.71 787.87 -436.28 793.79 -434.79 799.62 -433.18 805.37 -431.48 811.13 -429.77 816.81 -428.01 822.42 -426.22 830.84 -423.62 847.52 -418.63 855.83 -416.29 861.43 -414.85 867.04 -413.45 872.68 -412.07 878.42 -410.79 884.21 -409.51 890.07 -408.21 896.07 -406.97 902.17 -405.67 908.4 -404.3 914.8 -402.92 921.36 -401.44 928.1 -399.82 935.05 -398.14 942.21 -396.3 949.61 -394.28 957.24 -392.16 965.13 -389.85 973.3 -387.34 981.73 -384.72 990.46 -381.9 999.49 -378.9 1008.77 -375.8 1018.37 -372.53 1028.27 -369.12 1038.41 -365.63 1048.83 -362.04 1059.53 -358.34 1070.41 -354.64 1081.53 -350.88 1092.84 -347.08 1104.25 -343.33 1115.78 -339.57 1127.4 -335.83 1138.99 -332.18 1150.56 -328.56 1162.06 -324.99 1173.37 -321.53 1184.49 -318.13 1195.34 -314.77 1205.82 -311.54 1215.9 -308.35 1225.5 -305.19 1234.56 -302.12 1243.01 -299.07 1250.79 -296.02 1257.86 -293.01 1264.15 -289.98 1269.6 -286.89 1279.69 -277.27 1282.58 -261.41 1279.63 -255.48 1276.87 -251.36 1273.5 -247.07 1269.63 -242.6 1265.54 -238.01 1261.2 -233.25 1256.74 -228.33 1252.49 -223.31 1248.43 -218.13 1244.71 -212.82 1240.45 -204.69 1237.46 -187.86 1239.55 -179.25 1242.72 -173.5 1247.27 -167.71 1253.25 -161.91 1260.72 -156.14 1269.63 -150.38 1279.96 -144.64 1291.62 -138.97 1304.52 -133.33 1318.54 -127.72 1333.46 -122.21 1349.14 -116.74 1365.37 -111.32 1381.85 -105.99 1398.39 -100.71 1414.7 -95.48 1430.48 -90.34 1445.49 -85.23 1459.47 -80.16 1472.14 -75.17 1483.28 -70.2 1492.68 -65.25 1502.92 -57.9 1509.64 -43.24 1506 -35.87 1500.98 -30.96 1494.11 -26.01 1485.6 -21 1475.9 -15.98 1465.15 -10.9 1453.69 -5.74 1442.07 -0.56 1430.51 4.69 1419.42 10.04 1409.35 15.42 1400.51 20.9 1393.27 26.47 1388.08 32.09 1385.06 37.8 1384.46 43.62 1386.48 49.48 1391.11 55.44 1398.37 61.49 1408.19 67.6 1420.38 73.79 1434.71 80.08 1450.84 86.41 1468.41 92.84 1486.98 99.34 1506.05 105.88 1525.13 112.5 1543.7 119.19 1561.23 125.93 1577.23 132.72 1591.23 139.58 1602.85 146.47 1611.71 153.41 1617.54 160.4 1620.24 167.42 1619.69 174.48 1615.89 181.58 1609.11 188.71 1599.47 195.86 1587.32 203.05 1573.25 210.25 1557.6 217.48 1540.94 224.72 1524.05 231.98 1507.4 239.26 1491.62 246.55 1477.47 253.85 1465.35 261.16 1455.77 268.48 1449.25 275.81 1445.97 283.14 1446.13 290.47 1449.87 297.81 1457.04 305.15 1467.44 312.48 1480.8 319.82 1496.63 327.16 1514.39 334.49 1533.48 341.82 1553.2 349.15 1572.83 356.46 1591.66 363.78 1608.97 371.09 1624.08 378.38 1636.48 385.68 1645.61 392.95 1651.1 400.22 1652.81 407.48 1650.58 414.68 1644.52 421.82 1634.97 428.96 1622.22 436.04 1606.79 443.05 1589.28 450.06 1570.33 457 1550.64 463.88 1530.94 470.76 1511.91 477.56 1494.24 484.3 1478.55 491.04 1465.34 497.7 1455.04 504.3 1448 510.89 1444.36 517.41 1444.19 523.87 1447.49 530.32 1453.99 536.7 1463.38 543.01 1475.39 549.33 1489.4 555.57 1504.85 561.76 1521.3 567.94 1537.99 574.07 1554.27 580.13 1569.74 586.21 1583.65 592.23 1595.52 598.21 1605.06 604.2 1611.8 610.15 1615.49 616.06 1616.11 622 1613.5 627.91 1607.75 633.81 1599.08 639.74 1587.67 645.67 1573.87 651.59 1558.08 657.57 1540.74 663.56 1522.35 669.57 1503.39 675.66 1484.38 681.78 1465.82 687.94 1448.17 694.19 1431.87 700.5 1417.29 706.87 1404.76 713.35 1394.52 719.9 1386.72 726.54 1381.52 733.29 1378.89 740.13 1378.75 747.07 1381.09 754.12 1385.61 761.27 1392.05 768.52 1400.26 775.88 1409.77 783.33 1420.2 790.86 1431.35 798.49 1442.67 806.18 1453.76 813.94 1464.45 821.75 1474.22 829.59 1482.75 837.46 1489.94 845.33 1495.4 853.18 1498.95 860.99 1500.6 868.75 1500.14 876.42 1497.55 883.98 1492.92 891.43 1486.27 898.71 1477.7 905.8 1467.4 912.7 1455.52 919.37 1442.29 925.77 1427.92 931.93 1412.68 937.78 1396.83 943.31 1380.59 948.56 1364.26 953.45 1348.09 957.99 1332.25 962.24 1317.03 966.12 1302.61 969.65 1289.11 972.92 1276.73 975.86 1265.56 978.48 1255.69 980.92 1247.18 983.1 1240.05 985.06 1227.74 994.53 1235.85 1006.42 1241.4 1011.33 1245.35 1015.17 1249.19 1019.4 1252.78 1024.05 1256.19 1029.18 1259.14 1034.72 1261.52 1040.67 1263.42 1047.04 1264.61 1053.77 1265.02 1060.79 1264.77 1068.11 1263.67 1075.62 1261.72 1083.25 1259.01 1090.96 1255.44 1098.64 1251.04 1106.2 1245.89 1113.6 1239.96 1120.71 1233.29 1127.45 1225.97 1133.79 1218 1139.61 1209.45 1144.85 1200.38 1149.51 1190.85 1153.5 1180.91 1156.78 1170.61 1159.42 1160.03 1161.36 1149.23 1162.6 1138.21 1163.28 1127.09 1163.36 1115.92 1162.91 1104.67 1162.1 1093.45 1160.93 1082.32 1159.51 1071.22 1158.05 1060.27 1156.57 1049.5 1155.18 1038.84 1154.09 1028.4 1153.32 1018.2 1152.98 1008.17 1153.24 998.4 1154.09 988.89 1155.6 979.57 1157.87 970.52 1160.86 961.73 1164.55 953.14 1168.99 944.81 1174.06 936.7 1179.69 928.79 1185.85 921.1 1192.36 913.61 1199.11 906.29 1206 899.15 1212.84 892.16 1219.48 885.32 1225.82 878.62 1231.67 872.02 1236.9 865.54 1241.44 859.15 1245.14 852.84 1247.93 846.61 1249.82 840.42 1250.73 834.27 1250.65 828.19 1249.72 822.11 1247.91 816.04 1245.31 810.01 1242.15 803.96 1238.46 797.89 1234.41 791.85 1230.26 785.76 1226.08 779.63 1222.06 773.52 1218.47 767.35 1215.36 761.12 1212.87 754.89 1211.21 748.61 1210.39 742.25 1210.45 735.9 1211.52 729.47 1213.49 722.98 1216.32 716.48 1220 709.92 1224.35 703.28 1229.22 696.64 1234.53 689.94 1240.01 683.16 1245.46 676.39 1250.77 669.6 1255.64 662.79 1259.89 655.98 1263.46 649.16 1266.13 642.32 1267.79 635.5 1268.48 628.67 1268.07 621.85 1266.58 615.04 1264.11 608.23 1260.67 601.44 1256.37 594.66 1251.41 587.91 1245.86 581.18 1239.9 574.47 1233.77 567.79 1227.58 561.15 1221.5 554.53 1215.78 547.95 1210.5 541.42 1205.78 534.92 1201.81 528.47 1198.6 522.08 1196.21 515.71 1194.72 509.41 1194.06 503.16 1194.2 496.94 1195.14 490.79 1196.73 484.69 1198.84 478.63 1201.44 472.63 1204.3 466.68 1207.27 460.76 1210.3 454.9 1213.14 449.1 1215.64 440.43 1218.54 423.34 1220 414.89 1218.15 409.24 1215.83 403.62 1212.64 398.02 1208.63 392.38 1203.9 386.74 1198.48 381.11 1192.44 375.42 1185.94 369.72 1179.05 364.01 1171.88 358.22 1164.59 352.41 1157.27 346.57 1150.03 340.65 1143.03 334.7 1136.31 328.71 1129.97 322.64 1124.14 316.54 1118.82 310.41 1114.05 304.2 1109.92 297.98 1106.38 291.74 1103.43 285.45 1101.1 279.17 1099.29 272.9 1097.96 266.62 1097.11 260.37 1096.6 254.18 1096.35 248.01 1096.36 241.92 1096.46 235.94 1096.56 227.12 1096.63 210.36 1095.28 202.49 1093.45 195 1090.54 181.2 1081.33 174.88 1074.98 170.83 1070.08 166.95 1064.67 163.21 1058.78 159.52 1052.5 155.93 1045.83 152.4 1038.81 148.85 1031.53 145.31 1024.02 141.73 1016.33 138.03 1008.53 134.24 1000.67 130.31 992.79 126.16 984.96 121.83 977.22 117.28 969.59 112.44 962.14 107.34 954.88 101.99 947.85 96.33 941.07 90.41 934.55 84.24 928.3 77.81 922.35 71.18 916.68 64.39 911.27 57.45 906.16 50.45 901.3 43.45 896.67 36.47 892.3 29.61 888.13 22.95 884.11 16.51 880.3 10.41 876.61 4.71 872.99 -2.97 867.79 -14.82 857.52 -18.81 852.31 -21.39 846.99 -23.08 835.65 -22.55 829.54 -21.49 823.1 -19.18 809.1 -18.6 801.52 -18.79 796.27 -19.45 790.83 -20.69 785.2 -22.65 779.44 -25.29 773.5 -28.66 767.4 -32.83 761.18 -37.71 754.81 -43.26 748.3 -49.47 741.68 -56.2 734.94 -63.34 728.08 -70.81 721.14 -78.41 714.11 -86 706.98 -93.44 699.8 -100.54 692.54 -107.13 685.22 -113.12 677.86 -118.32 670.45 -122.6 663 -125.95 655.52 -128.23 648.02 -129.41 640.49 -129.58 632.95 -128.69 625.4 -126.8 617.84 -124.12 610.27 -120.69 602.71 -116.66 595.14 -112.33 587.58 -107.78 580.03 -103.23 572.49 -98.98 564.95 -95.14 557.43 -91.89 549.92 -89.51 542.42 -88.03 534.94 -87.57 527.48 -88.28 520.02 -90.1 512.58 -93.02 505.16 -97.06 497.74 -102.04 490.34 -107.82 482.97 -114.29 475.59 -121.17 468.24 -128.23 460.9 -135.31 453.57 -142.08 446.25 -148.31 438.96 -153.83 431.66 -158.38 424.38 -161.78 417.12 -163.98 409.86 -164.81 402.61 -164.23 395.38 -162.35 388.15 -159.17 380.98 -154.8 373.86 -149.51 366.75 -143.4 359.69 -136.73 352.69 -129.78 345.69 -122.76 338.74 -115.9 331.85 -109.5 324.96 -103.72 318.13 -98.73 311.35 -94.75 304.57 -91.83 297.84 -90.02 291.17 -89.42 284.5 -89.92 277.88 -91.47 271.32 -94.03 264.75 -97.39 258.23 -101.35 251.77 -105.84 245.3 -110.54 238.88 -115.24 232.51 -119.83 226.14 -124.01 219.8 -127.58 213.52 -130.49 207.22 -132.49 200.96 -133.47 194.75 -133.47 188.52 -132.34 182.32 -130.08 176.16 -126.81 169.97 -122.52 163.81 -117.3 157.68 -111.33 151.52 -104.7 145.37 -97.55 139.25 -90.12 133.08 -82.51 126.93 -74.9 120.78 -67.49 114.59 -60.38 108.4 -53.71 102.21 -47.64 95.97 -42.21 89.72 -37.49 83.45 -33.57 77.13 -30.4 70.8 -27.99 64.45 -26.36 58.04 -25.38 51.62 -24.98 45.17 -25.16 38.66 -25.72 32.14 -26.54 25.6 -27.61 19.01 -28.71 12.4 -29.71 5.78 -30.62 -0.87 -31.21 -7.53 -31.4 -14.19 -31.2 -20.87 -30.46 -27.55 -29.11 -34.2 -27.21 -40.85 -24.66 -47.47 -21.46 -54.05 -17.69 -60.61 -13.3 -67.1 -8.34 -73.53 -2.92 -79.91 2.96 -86.2 9.24 -92.39 15.8 -98.52 22.61 -104.53 29.59 -110.42 36.63 -116.22 43.71 -121.88 50.74 -127.4 57.65 -132.83 64.41 -138.1 70.97 -143.22 77.27 -148.24 83.3 -153.11 89.06 -157.83 94.49 -162.46 99.63 -166.95 104.48 -171.3 111.16 -177.67 123 -189.81 128.35 -195.65 133.38 -201.45 143.26 -212.93 148.33 -218.7 153.59 -224.62 165.07 -236.8 171.4 -243.09 175.83 -247.43 180.47 -251.82 185.33 -256.26 190.33 -260.8 195.53 -265.39 200.92 -270 206.43 -274.69 212.11 -279.38 217.93 -284.06 223.83 -288.76 229.84 -293.43 235.95 -298.03 242.09 -302.61 248.29 -307.09 254.54 -311.45 260.78 -315.74 267.03 -319.89 273.29 -323.88 279.51 -327.76 285.7 -331.46 291.88 -334.98 297.99 -338.38 304.06 -341.58 310.1 -344.61 316.05 -347.52 321.97 -350.25 327.85 -352.83 333.65 -355.33 339.42 -357.69 345.17 -359.94 350.84 -362.16 356.5 -364.31 362.15 -366.38 367.75 -368.5 373.35 -370.58 378.96 -372.66 384.54 -374.82 390.14 -377 395.77 -379.21 401.39 -381.54 407.05 -383.9 412.75 -386.31 418.47 -388.83 424.24 -391.39 430.07 -393.97 435.92 -396.64 441.84 -399.32 447.82 -401.97 453.84 -404.67 459.93 -407.31 466.09 -409.88 472.29 -412.43 478.56 -414.86 484.9 -417.16 491.29 -419.38 497.74 -421.44 504.26 -423.31 510.82 -425.07 517.44 -426.64 524.11 -428.01 530.83 -429.26 537.6 -430.32 544.41 -431.19 551.26 -431.97 558.15 -432.59 565.07 -433.07 572.03 -433.51 579.01 -433.85 586.01 -434.1 593.03 -434.38 600.07 -434.62 607.12 -434.83 614.19 -435.13 621.25 -435.43 628.31 -435.75 635.39 -436.19 642.45 -436.65 649.49 -437.15 656.54 -437.76 663.57 -438.38 670.56 -439.01 677.56 -439.72 684.52 -440.4 691.44 -441.03" stroke-dasharray="1 1" transform="rotate(4.352941176470588, 711, 400)" opacity="0.97"></path><path d="M680.61 -391.42C686.94 -392.16 693.29 -392.81 699.64 -393.34 706 -393.82 712.38 -394.14 718.77 -394.29 725.17 -394.33 731.6 -394.18 738.05 -393.82 744.51 -393.33 751.01 -392.63 757.55 -391.72 764.1 -390.7 770.7 -389.49 777.35 -388.1 784.04 -386.64 790.78 -385.04 797.59 -383.32 804.45 -381.59 811.38 -379.78 818.4 -377.91 825.47 -376.1 832.64 -374.26 839.92 -372.43 847.26 -370.7 854.72 -369 862.3 -367.34 869.96 -365.79 877.76 -364.3 885.69 -362.85 893.71 -361.52 901.87 -360.22 910.18 -358.95 918.58 -357.76 927.13 -356.57 935.83 -355.35 944.61 -354.17 953.54 -352.93 962.6 -351.61 971.73 -350.27 980.99 -348.81 990.36 -347.21 999.76 -345.54 1009.25 -343.71 1018.82 -341.7 1028.37 -339.58 1037.95 -337.27 1047.54 -334.77 1057.06 -332.15 1066.53 -329.34 1075.93 -326.34 1085.18 -323.24 1094.29 -319.97 1103.22 -316.56 1111.92 -313.07 1120.38 -309.47 1128.54 -305.76 1136.38 -302.03 1143.86 -298.23 1150.93 -294.39 1157.59 -290.58 1163.78 -286.76 1169.46 -282.94 1176.98 -277.34 1188.33 -266.48 1192.06 -261.26 1194.89 -251.49 1191.98 -237.63 1189.03 -233.14 1181.91 -224.11 1172.28 -209.74 1170.58 -204.5 1170.47 -199.01 1175.32 -187.09 1180.74 -180.66 1185.76 -176.2 1191.83 -171.59 1198.98 -166.83 1207.22 -161.96 1216.52 -156.95 1226.85 -151.8 1238.12 -146.57 1250.27 -141.23 1263.21 -135.78 1276.77 -130.27 1290.87 -124.68 1305.35 -119.02 1319.99 -113.33 1334.67 -107.59 1349.19 -101.81 1363.32 -96.03 1376.91 -90.24 1389.75 -84.44 1401.65 -78.67 1412.44 -72.9 1421.95 -67.15 1430.06 -61.46 1436.63 -55.79 1441.54 -50.15 1445.55 -41.81 1442.42 -25.42 1435.59 -17.37 1429.26 -12.1 1421.71 -6.85 1413.15 -1.64 1403.97 3.49 1394.29 8.62 1384.38 13.72 1374.7 18.77 1365.39 23.8 1356.75 28.84 1349.21 33.82 1342.9 38.81 1338.08 43.82 1334.51 51.29 1340.57 66.32 1350.56 73.92 1360.03 78.99 1371.41 84.11 1384.53 89.28 1399.14 94.45 1414.95 99.68 1431.63 104.97 1448.8 110.27 1466.09 115.63 1483.1 121.06 1499.4 126.5 1514.62 132.01 1528.37 137.59 1540.31 143.19 1550.14 148.85 1557.59 154.58 1562.52 160.34 1564.76 166.15 1564.25 172.03 1561.12 177.94 1555.37 183.9 1547.18 189.93 1536.95 195.97 1524.87 202.07 1511.31 208.23 1496.86 214.4 1481.84 220.63 1466.75 226.9 1452.23 233.19 1438.64 239.53 1426.43 245.91 1416.18 252.3 1408.13 258.73 1402.6 265.2 1399.92 271.68 1400.14 278.19 1403.31 284.73 1409.46 291.27 1418.38 297.85 1429.83 304.45 1443.53 311.06 1459.03 317.69 1475.86 324.33 1493.51 330.99 1511.41 337.66 1528.97 344.34 1545.64 351.03 1560.84 357.73 1574.04 364.44 1584.85 371.16 1592.84 377.88 1597.71 384.62 1599.35 391.36 1597.64 398.06 1592.64 404.74 1584.63 411.41 1573.81 418.06 1560.56 424.67 1545.37 431.28 1528.72 437.87 1511.14 444.42 1493.23 450.98 1475.54 457.51 1458.63 464.01 1443.04 470.52 1429.21 477 1417.54 483.46 1408.4 489.93 1401.99 496.38 1398.45 502.81 1397.9 509.25 1400.22 515.68 1405.27 522.1 1412.94 528.53 1422.81 534.96 1434.53 541.39 1447.79 547.84 1462.02 554.29 1476.72 560.75 1491.56 567.24 1505.91 573.74 1519.29 580.26 1531.42 586.81 1541.79 593.38 1550.06 599.98 1556.09 606.62 1559.58 613.3 1560.4 620 1558.62 626.76 1554.17 633.55 1547.17 640.38 1537.84 647.26 1526.37 654.18 1513.04 661.15 1498.21 668.16 1482.21 675.22 1465.44 682.32 1448.28 689.46 1431.13 696.64 1414.37 703.86 1398.34 711.1 1383.4 718.37 1369.84 725.66 1357.9 732.97 1347.78 740.28 1339.63 747.59 1333.58 754.89 1329.62 762.16 1327.73 769.4 1327.93 776.6 1330.03 783.75 1333.85 790.82 1339.32 797.81 1346.09 804.7 1353.9 811.48 1362.64 818.14 1371.85 824.66 1381.27 831.02 1390.76 837.22 1399.88 843.24 1408.38 849.05 1416.18 854.68 1422.89 860.08 1428.34 865.24 1433.81 872.55 1434.39 885.57 1429.29 891.28 1423.76 894.81 1416.68 898.1 1408.15 901.15 1398.32 904.05 1387.31 906.76 1375.29 909.27 1362.41 911.71 1348.86 914.02 1334.84 916.22 1320.49 918.42 1306.03 920.59 1291.63 922.74 1277.41 925 1263.57 927.33 1250.26 929.75 1237.54 932.38 1225.58 935.17 1214.47 938.17 1204.24 941.46 1194.98 945 1186.71 948.82 1179.47 953 1173.24 957.49 1168 962.3 1163.77 967.47 1160.46 972.96 1158 978.77 1156.41 984.9 1155.55 991.3 1155.31 997.94 1155.73 1004.8 1156.6 1011.83 1157.84 1018.97 1159.47 1026.2 1161.28 1033.43 1163.17 1040.6 1165.21 1047.67 1167.16 1054.57 1168.95 1061.21 1171.36 1070.59 1174.06 1086.67 1174.08 1093.1 1170.22 1101.42 1157.12 1106.46 1150.28 1105.98 1145.11 1105.31 1139.47 1104.4 1133.37 1103.34 1126.89 1102.31 1120.02 1101.31 1112.79 1100.43 1105.25 1099.85 1097.42 1099.56 1089.33 1099.65 1081 1100.25 1072.47 1101.35 1063.79 1103 1054.94 1105.29 1045.99 1108.17 1036.96 1111.65 1027.83 1115.76 1018.67 1120.4 1009.51 1125.54 1000.31 1131.15 991.13 1137.11 982.01 1143.31 972.89 1149.7 963.84 1156.13 954.88 1162.47 945.95 1168.66 937.12 1174.53 928.41 1179.96 919.74 1184.91 911.2 1189.23 902.77 1192.83 894.41 1195.72 886.17 1197.78 878.06 1199 870 1199.45 862.07 1199.06 854.26 1197.89 846.5 1196.08 838.86 1193.62 831.33 1190.63 823.85 1187.31 816.47 1183.69 809.18 1179.91 801.94 1176.22 794.79 1172.65 787.73 1169.35 780.69 1166.53 773.74 1164.22 766.85 1162.52 759.99 1161.59 753.19 1161.4 746.45 1162 739.73 1163.45 733.06 1165.65 726.45 1168.57 719.84 1172.19 713.27 1176.34 706.75 1180.91 700.24 1185.82 693.76 1190.86 687.32 1195.86 680.87 1200.74 674.5 1205.23 668.2 1209.2 661.9 1212.61 655.66 1215.26 649.48 1217.05 643.31 1218.02 637.19 1218.05 631.14 1217.12 625.08 1215.34 619.08 1212.68 613.14 1209.2 607.19 1205.07 601.3 1200.33 595.47 1195.11 589.63 1189.61 583.84 1183.9 578.1 1178.14 572.35 1172.52 566.66 1167.12 561.01 1162.06 555.34 1157.53 549.73 1153.54 544.15 1150.17 535.77 1146.57 519.15 1144.03 510.9 1144.92 505.37 1146.32 499.85 1148.15 494.36 1150.31 488.82 1152.77 483.29 1155.32 477.76 1157.85 469.39 1161.44 452.54 1166.35 444.04 1167.11 438.3 1166.81 432.54 1165.8 426.77 1164.04 420.92 1161.62 415.04 1158.46 409.15 1154.6 403.19 1150.14 397.2 1145.08 391.2 1139.49 385.14 1133.5 379.06 1127.13 372.98 1120.5 366.84 1113.72 360.71 1106.86 354.59 1100 348.44 1093.27 342.31 1086.72 336.22 1080.42 330.12 1074.48 324.07 1068.91 318.08 1063.76 312.11 1059.1 306.23 1054.91 300.43 1051.2 294.68 1048.03 289.03 1045.32 283.5 1043.04 275.37 1040.51 259.89 1037.55 252.55 1036.77 245.46 1036.29 232.01 1035.02 225.6 1033.87 219.31 1032.14 206.96 1026.41 200.8 1022.25 196.61 1018.96 192.37 1015.22 188.07 1011.04 183.63 1006.47 179.09 1001.5 174.44 996.13 169.62 990.43 164.66 984.39 159.55 978.05 154.26 971.47 148.82 964.65 143.25 957.64 137.51 950.5 131.66 943.24 125.72 935.89 119.68 928.52 113.61 921.15 107.53 913.79 101.44 906.5 95.43 899.3 89.54 892.2 83.76 885.24 78.19 878.43 72.86 871.78 67.77 865.32 63 859.03 58.6 852.93 54.52 847.05 50.87 841.35 47.65 835.83 43.59 827.95 38.16 813.27 36.65 806.4 35.79 799.88 35.15 787.38 34.95 781.31 34.4 775.36 31.54 763.44 28.86 757.38 24.9 751.26 13.55 738.54 6.2 731.91 0.67 727.41 -5.22 722.79 -11.42 718.04 -17.86 713.25 -24.41 708.33 -30.96 703.29 -37.44 698.19 -43.68 692.96 -49.58 687.62 -55.08 682.21 -60.02 676.69 -64.3 671.06 -67.92 665.37 -70.76 659.57 -72.75 653.67 -73.97 647.73 -74.35 641.69 -73.89 635.56 -72.75 629.39 -70.91 623.13 -68.45 616.81 -65.6 610.45 -62.36 604.02 -58.9 597.53 -55.45 591.02 -52.06 584.45 -48.89 577.83 -46.17 571.19 -43.95 564.51 -42.34 557.79 -41.53 551.06 -41.5 544.3 -42.3 537.51 -44.04 530.71 -46.61 523.88 -50 517.04 -54.17 510.19 -58.98 503.33 -64.3 496.45 -70.05 489.57 -75.99 482.67 -81.96 475.77 -87.83 468.87 -93.37 461.96 -98.38 455.05 -102.8 448.14 -106.4 441.22 -109.05 434.3 -110.75 427.39 -111.35 420.47 -110.84 413.54 -109.31 406.62 -106.73 399.74 -103.2 392.9 -98.92 386.06 -93.95 379.25 -88.46 372.49 -82.71 365.72 -76.79 358.99 -70.9 352.3 -65.28 345.6 -60.04 338.94 -55.31 332.31 -51.29 325.68 -48.02 319.08 -45.57 312.51 -44.05 305.93 -43.4 299.38 -43.59 292.85 -44.66 286.32 -46.45 279.8 -48.85 273.31 -51.84 266.81 -55.19 260.33 -58.74 253.86 -62.44 247.38 -66.04 240.91 -69.38 234.45 -72.43 227.97 -74.95 221.5 -76.84 215.04 -78.08 208.55 -78.52 202.07 -78.11 195.59 -76.92 189.09 -74.85 182.58 -71.93 176.08 -68.28 169.55 -63.89 163.01 -58.85 156.47 -53.31 149.91 -47.33 143.34 -41.01 136.77 -34.54 130.17 -27.97 123.57 -21.42 116.97 -15.06 110.35 -8.94 103.73 -3.14 97.11 2.19 90.48 7.08 83.86 11.46 77.25 15.24 70.63 18.48 64.04 21.19 57.46 23.31 50.9 24.94 44.37 26.15 37.87 26.9 31.4 27.34 24.98 27.56 18.61 27.53 12.29 27.43 6.02 27.34 -0.15 27.25 -6.29 27.32 -12.33 27.63 -18.29 28.56 -27.07 32.84 -43.97 36.37 -52.07 39.26 -57.34 42.63 -62.48 46.44 -67.5 50.62 -72.43 55.2 -77.23 60.15 -81.91 65.36 -86.51 70.86 -90.98 76.59 -95.34 82.47 -99.64 88.49 -103.83 94.6 -107.92 100.72 -111.98 106.85 -115.95 112.95 -119.85 118.96 -123.75 124.87 -127.59 130.66 -131.38 136.28 -135.21 141.75 -139.01 147.06 -142.8 152.17 -146.66 157.11 -150.52 161.89 -154.4 166.48 -158.37 170.94 -162.38 175.27 -166.42 179.45 -170.58 183.55 -174.78 187.58 -179.04 191.52 -183.4 195.44 -187.82 199.36 -192.29 203.25 -196.85 207.19 -201.46 211.19 -206.09 215.21 -210.8 219.33 -215.51 223.56 -220.23 227.85 -224.98 232.28 -229.7 236.84 -234.37 241.48 -239.03 246.28 -243.61 251.21 -248.1 256.24 -252.54 261.4 -256.85 266.7 -261.03 272.08 -265.11 277.57 -269.03 283.18 -272.79 288.85 -276.42 294.61 -279.88 300.45 -283.16 306.31 -286.32 312.24 -289.3 318.22 -292.1 324.2 -294.81 330.21 -297.35 336.24 -299.75 342.24 -302.09 348.25 -304.32 354.26 -306.44 360.22 -308.54 366.17 -310.59 372.1 -312.58 377.96 -314.62 383.81 -316.64 389.63 -318.66 395.37 -320.78 401.1 -322.91 406.8 -325.09 412.42 -327.39 418.03 -329.73 423.61 -332.12 429.13 -334.64 434.63 -337.2 440.12 -339.8 445.55 -342.5 450.97 -345.22 456.4 -347.94 461.78 -350.71 467.16 -353.45 472.56 -356.13 477.91 -358.82 483.29 -361.41 488.69 -363.89 496.76 -367.44 513.02 -373.58 521.24 -376.1 529.48 -378.23 546.17 -381.33 554.64 -382.35 563.14 -383.1 580.41 -383.96 589.17 -384.19 595.02 -384.38 600.93 -384.54 606.88 -384.7 612.84 -384.97 618.84 -385.26 624.89 -385.59 630.94 -386.05 637.04 -386.55 643.18 -387.09 649.33 -387.76 655.52 -388.45 661.75 -389.15 667.99 -389.94 674.27 -390.7 680.6 -391.42" stroke-dasharray="1 4" transform="rotate(8.705882352941176, 711, 400)" opacity="0.29"></path><path d="M716.51 -341.82C723.01 -342.64 729.55 -343.37 736.16 -343.99 742.76 -344.56 749.43 -344.99 756.16 -345.25 762.9 -345.4 769.7 -345.36 776.56 -345.12 783.44 -344.75 790.38 -344.17 797.39 -343.38 804.42 -342.46 811.51 -341.35 818.68 -340.05 825.86 -338.66 833.1 -337.12 840.41 -335.44 847.74 -333.72 855.13 -331.9 862.58 -330.01 870.04 -328.13 877.55 -326.22 885.12 -324.3 892.68 -322.45 900.29 -320.62 907.93 -318.82 915.56 -317.13 923.21 -315.49 930.87 -313.91 938.5 -312.45 946.13 -311.04 953.73 -309.68 961.28 -308.44 968.79 -307.23 976.24 -306.03 983.6 -304.92 990.88 -303.79 998.06 -302.64 1005.12 -301.51 1012.04 -300.33 1018.8 -299.06 1025.41 -297.76 1031.83 -296.35 1038.03 -294.8 1046.91 -292.29 1063.01 -286.28 1070.12 -282.74 1076.5 -278.84 1087.05 -269.96 1091.17 -265.03 1096.67 -254.34 1100.45 -237.33 1100.36 -231.52 1099.01 -220.15 1096.4 -203.83 1095.94 -198.7 1097.66 -189.07 1106.71 -175.36 1112.56 -170.92 1117.43 -168 1123.02 -165.05 1129.37 -162.05 1136.49 -159.06 1144.37 -156 1153.01 -152.86 1162.36 -149.69 1172.41 -146.41 1183.11 -143.03 1194.37 -139.58 1206.15 -136.01 1218.37 -132.3 1230.9 -128.52 1243.67 -124.59 1256.58 -120.52 1269.45 -116.36 1282.22 -112.05 1294.74 -107.6 1306.84 -103.05 1318.44 -98.37 1329.38 -93.56 1339.54 -88.66 1348.81 -83.63 1357.06 -78.5 1364.22 -73.29 1370.18 -67.98 1374.86 -62.58 1379.29 -54.36 1379.43 -37.54 1375.27 -28.99 1371.02 -23.26 1365.69 -17.51 1359.42 -11.73 1352.49 -5.98 1344.95 -0.21 1336.97 5.55 1328.92 11.29 1320.85 17.03 1312.98 22.75 1305.68 28.43 1299.01 34.1 1293.2 39.74 1286.85 48.13 1283.31 64.7 1286.83 72.9 1291.52 78.3 1297.94 83.68 1306.04 89.05 1315.76 94.36 1326.95 99.67 1339.46 104.96 1353.08 110.21 1367.58 115.45 1382.72 120.69 1398.19 125.9 1413.72 131.1 1428.99 136.32 1443.7 141.5 1457.53 146.7 1470.2 151.91 1481.46 157.1 1491.03 162.31 1498.71 167.54 1506.12 175.38 1506.49 191.19 1499.5 199.17 1492.23 204.5 1483.16 209.86 1472.54 215.28 1460.8 220.68 1448.13 226.13 1434.89 231.62 1421.61 237.11 1408.53 242.65 1396.05 248.24 1384.66 253.82 1374.59 259.46 1366.18 265.14 1357.68 273.69 1355.83 291.03 1362.89 299.82 1370.78 305.7 1380.82 311.63 1392.76 317.61 1406.34 323.58 1421.15 329.61 1436.8 335.68 1452.88 341.75 1468.92 347.87 1484.46 354.04 1499.07 360.21 1512.29 366.42 1523.73 372.68 1533.09 378.94 1540.03 385.25 1544.32 391.61 1545.89 397.97 1544.62 404.34 1540.56 410.71 1533.93 417.09 1524.85 423.48 1513.62 429.88 1500.62 436.28 1486.17 442.7 1470.72 449.12 1454.72 455.55 1438.59 461.99 1422.8 468.45 1407.78 474.91 1393.92 481.38 1381.58 487.87 1371.1 494.36 1362.7 500.87 1356.56 507.4 1352.86 513.93 1351.6 520.48 1352.75 527.05 1356.3 533.63 1362.03 540.22 1369.72 546.83 1379.21 553.45 1390.09 560.08 1402.01 566.74 1414.75 573.4 1427.8 580.07 1440.76 586.76 1453.42 593.45 1465.26 600.15 1475.96 606.86 1485.35 613.57 1493.05 620.29 1498.83 627 1502.66 633.71 1504.3 640.41 1503.72 647.09 1500.98 653.77 1496.07 660.42 1489.09 667.04 1480.23 673.64 1469.64 680.2 1457.55 686.71 1444.22 693.19 1429.92 699.6 1414.95 705.94 1399.59 712.23 1384.15 718.44 1368.92 724.55 1354.16 730.58 1340.16 736.51 1327.13 742.33 1315.29 748.05 1304.81 753.63 1295.83 759.08 1288.46 764.42 1282.76 769.6 1278.73 774.62 1276.08 781.89 1280.78 795.36 1287.38 801.56 1293.22 805.51 1299.8 809.28 1306.93 812.87 1314.54 816.36 1322.28 819.69 1329.93 822.86 1337.46 825.96 1344.52 828.93 1350.93 831.78 1365.73 846 1354.94 860.72 1344.75 865.45 1336.54 868.84 1327.37 872.41 1317.36 876.15 1306.59 880.15 1295.21 884.36 1283.34 888.79 1271.06 893.5 1258.54 898.44 1245.91 903.62 1233.22 909.06 1220.64 914.73 1208.27 920.61 1196.17 926.72 1184.46 933 1173.22 939.44 1162.47 946.02 1152.33 952.7 1142.82 959.44 1133.95 966.21 1125.78 972.96 1118.31 979.65 1111.55 986.26 1105.5 992.7 1100.12 998.95 1095.43 1004.99 1091.38 1010.73 1087.91 1016.15 1077.23 1046.51 1074.74 1045.72 1072.87 1045.2 1066.94 1046.69 1053.84 1054.82 1048.03 1059.82 1043.83 1063.85 1039.33 1068.31 1034.54 1073.16 1029.55 1078.42 1024.3 1083.96 1018.81 1089.71 1013.14 1095.65 1007.25 1101.64 1001.18 1107.59 994.95 1113.45 988.56 1119.09 982.02 1124.41 975.37 1129.38 968.59 1133.87 961.72 1137.8 954.75 1141.17 947.71 1143.88 940.6 1145.89 933.43 1147.24 926.22 1147.87 918.97 1147.79 911.69 1147.1 904.39 1145.76 897.09 1143.85 889.77 1141.51 882.45 1138.76 875.15 1135.67 867.84 1132.46 860.56 1129.14 853.3 1125.83 846.05 1122.72 838.83 1119.83 831.66 1117.28 824.49 1115.23 817.36 1113.68 810.28 1112.69 803.21 1112.41 796.19 1112.78 789.22 1113.8 782.25 1115.55 775.33 1117.92 768.47 1120.86 761.61 1124.37 754.8 1128.31 748.04 1132.56 741.28 1137.08 734.56 1141.69 727.89 1146.26 721.22 1150.71 714.63 1154.84 708.12 1158.53 701.6 1161.76 695.16 1164.35 688.78 1166.22 682.4 1167.42 676.08 1167.8 669.83 1167.37 663.56 1166.19 657.34 1164.23 651.18 1161.52 645 1158.19 638.87 1154.27 632.79 1149.83 626.68 1145.04 620.61 1139.94 614.57 1134.66 608.51 1129.37 602.47 1124.12 596.47 1119.02 590.42 1114.22 584.4 1109.78 578.4 1105.75 572.36 1102.28 566.33 1099.34 560.31 1096.97 554.25 1095.27 548.19 1094.15 542.14 1093.61 536.04 1093.68 529.95 1094.25 523.85 1095.26 517.7 1096.71 511.55 1098.45 505.4 1100.39 499.2 1102.52 493 1104.67 486.8 1106.73 480.55 1108.72 474.31 1110.44 468.06 1111.81 461.78 1112.86 455.51 1113.43 449.24 1113.47 442.96 1113.01 436.69 1111.94 430.43 1110.25 424.17 1108.01 417.94 1105.14 411.75 1101.68 405.56 1097.7 399.42 1093.2 393.33 1088.22 387.27 1082.86 381.27 1077.14 375.34 1071.13 369.45 1064.93 363.64 1058.58 357.92 1052.16 352.26 1045.76 346.69 1039.41 341.22 1033.19 335.82 1027.18 330.52 1021.4 325.33 1015.89 320.2 1010.73 315.19 1005.92 310.27 1001.47 303.05 995.61 289.13 986.41 282.4 982.97 275.77 980.37 262.72 976.67 256.24 975.32 249.68 974.18 236.34 971.67 229.5 970.03 222.46 967.99 207.87 962.23 200.33 958.38 195.19 955.44 190.01 952.14 184.78 948.5 179.5 944.57 174.21 940.3 168.94 935.71 163.66 930.84 158.44 925.67 153.3 920.23 148.22 914.55 143.28 908.64 138.5 902.52 133.85 896.23 129.42 889.78 125.21 883.19 121.21 876.5 117.47 869.72 114.02 862.88 110.8 856.01 107.88 849.12 105.27 842.24 102.88 835.38 100.78 828.56 98.96 821.79 97.31 815.11 95.89 808.5 94.66 801.98 93.52 795.57 92.49 789.26 91.54 783.07 90.54 777 89.53 771.05 88.44 765.21 86.45 756.71 81 740.43 77.33 732.62 74.38 727.57 71.08 722.59 67.44 717.67 63.39 712.85 59.02 708.08 54.33 703.36 49.33 698.71 44.1 694.08 38.7 689.47 33.14 684.92 27.53 680.37 21.94 675.81 16.42 671.28 11.07 666.74 5.98 662.16 1.18 657.61 -3.21 653.01 -7.14 648.37 -12.04 641.39 -17.98 627.13 -18.93 619.83 -18.47 612.46 -14.29 597.31 -11 589.54 -8.6 584.32 -6.1 579.02 -3.59 573.65 -0.25 565.54 4.25 548.91 4.92 540.42 4.52 534.72 3.49 528.95 1.83 523.12 -0.5 517.27 -3.44 511.37 -6.93 505.4 -10.94 499.43 -15.35 493.4 -20.04 487.32 -24.97 481.22 -29.94 475.08 -34.84 468.88 -39.58 462.68 -43.99 456.43 -47.94 450.13 -51.39 443.83 -54.16 437.49 -56.18 431.1 -57.47 424.7 -57.89 418.27 -57.45 411.79 -56.22 405.31 -54.18 398.83 -51.38 392.35 -48 385.86 -44.04 379.38 -39.64 372.89 -34.98 366.4 -30.12 359.92 -25.2 353.43 -20.42 346.94 -15.83 340.46 -11.55 333.97 -7.73 327.48 -4.42 320.99 -1.66 314.51 0.41 308.02 1.84 301.53 2.64 295.04 2.73 288.55 2.23 282.06 1.18 275.58 -0.41 269.09 -2.41 262.6 -4.7 256.12 -7.28 249.63 -9.95 243.14 -12.59 236.66 -15.2 230.18 -17.57 223.71 -19.61 217.24 -21.32 210.77 -22.54 204.31 -23.19 197.86 -23.32 191.42 -22.81 184.99 -21.64 178.57 -19.88 172.17 -17.48 165.78 -14.45 159.41 -10.91 153.07 -6.83 146.74 -2.3 140.45 2.56 134.18 7.75 127.95 13.18 121.75 18.71 115.59 24.32 109.47 29.92 103.41 35.39 97.38 40.72 91.41 45.84 85.51 50.65 79.65 55.16 73.86 59.33 68.15 63.1 62.49 66.49 56.91 69.52 51.42 73.25 43.31 78.61 27.67 80.44 20.14 81.79 12.81 84.11 -1.24 85.38 -7.97 86.9 -14.54 91.29 -27.15 94.34 -33.23 98.06 -39.21 107.47 -50.88 113.13 -56.62 117.21 -60.46 121.56 -64.28 126.14 -68.08 130.87 -71.95 135.78 -75.81 140.84 -79.69 145.98 -83.64 151.21 -87.62 156.51 -91.63 161.81 -95.72 167.13 -99.86 172.45 -104.04 177.7 -108.32 182.92 -112.65 188.08 -117.03 193.14 -121.5 198.13 -126.01 203.04 -130.56 207.84 -135.2 212.55 -139.86 217.19 -144.54 221.72 -149.28 226.19 -154.03 230.6 -158.76 234.92 -163.52 239.21 -168.25 243.47 -172.93 247.68 -177.59 251.9 -182.19 256.13 -186.7 260.34 -191.16 264.59 -195.51 268.9 -199.73 273.22 -203.87 277.61 -207.87 282.09 -211.72 288.92 -217.24 303.17 -227.28 310.6 -231.79 315.67 -234.63 320.84 -237.31 326.12 -239.84 331.47 -242.3 336.92 -244.62 342.47 -246.82 348.07 -248.98 353.76 -251.05 359.52 -253.05 365.33 -255.05 371.21 -257.01 377.15 -258.95 383.1 -260.94 389.11 -262.93 395.16 -264.94 401.21 -267.04 407.29 -269.18 413.4 -271.36 419.49 -273.67 425.59 -276.02 431.7 -278.44 437.78 -280.97 443.87 -283.56 449.95 -286.18 455.99 -288.91 462.02 -291.66 468.05 -294.43 474.03 -297.25 480 -300.05 485.96 -302.81 491.86 -305.58 497.76 -308.27 503.64 -310.87 509.48 -313.41 515.31 -315.83 521.13 -318.1 526.9 -320.27 532.67 -322.27 538.45 -324.08 544.17 -325.77 549.9 -327.26 555.65 -328.56 564.2 -330.22 581.35 -332.46 589.96 -333.12 598.56 -333.56 615.89 -333.99 624.64 -334.09 630.47 -334.22 636.36 -334.35 642.29 -334.51 648.21 -334.77 654.2 -335.09 660.24 -335.45 666.28 -335.94 672.38 -336.49 678.55 -337.09 684.72 -337.81 690.96 -338.56 697.29 -339.33 703.61 -340.18 710.01 -341.02 716.5 -341.82" stroke-dasharray="3 1" transform="rotate(13.058823529411766, 711, 400)" opacity="0.49"></path><path d="M743.93 -292.22C750.38 -293.1 756.83 -293.9 763.25 -294.59 769.68 -295.25 776.09 -295.76 782.48 -296.12 788.87 -296.38 795.24 -296.46 801.58 -296.35 807.91 -296.1 814.22 -295.66 820.5 -295.01 833.02 -293.32 845.37 -290.87 857.5 -287.77 869.53 -284.41 881.27 -280.66 892.65 -276.68 903.83 -272.88 914.55 -269.12 924.74 -265.5 934.61 -262.35 943.84 -259.44 952.35 -256.73 960.46 -254.46 967.75 -252.25 974.2 -250 982.78 -246.64 995.24 -237.55 999.48 -231.26 1002.1 -226.39 1004.39 -220.82 1006.56 -214.6 1009.27 -208.01 1012.32 -200.92 1016 -193.43 1020.9 -185.85 1026.96 -178.1 1034.46 -170.28 1043.77 -162.68 1054.9 -155.18 1068.02 -147.84 1083.11 -140.9 1100.16 -134.17 1119.05 -127.62 1139.36 -121.46 1160.87 -115.41 1183.14 -109.41 1205.42 -103.61 1227.28 -97.72 1247.99 -91.66 1266.81 -85.57 1283.15 -79.16 1296.35 -72.38 1306.05 -65.39 1311.81 -57.93 1313.39 -50.01 1311.25 -41.77 1305.34 -33.05 1296.16 -23.86 1285.02 -14.38 1272.39 -4.48 1259.4 5.77 1247.8 16.25 1238.28 27.02 1232.05 38.01 1230.44 49.12 1233.79 60.37 1242.55 71.74 1256.84 83.1 1276.09 94.52 1299.49 105.95 1325.75 117.32 1353.38 128.67 1380.61 140.01 1405.6 151.24 1426.62 162.44 1442.1 173.63 1451.09 184.69 1452.78 195.76 1447.06 206.82 1434.92 217.78 1417.15 228.77 1395.43 239.8 1372.4 250.75 1349.88 261.76 1330.23 272.85 1316 283.89 1308.45 295.03 1308.69 306.27 1317.26 317.49 1333.42 328.83 1355.91 340.31 1368.96 346.04 1382.8 351.81 1397.1 357.62 1411.52 363.43 1425.7 369.27 1439.28 375.15 1451.95 381.03 1463.34 386.95 1473.16 392.91 1481.19 398.87 1487.17 404.87 1490.93 410.91 1492.41 416.95 1491.52 423 1488.28 429.05 1482.88 435.1 1475.37 441.16 1465.99 447.22 1455.01 453.28 1442.67 459.35 1429.3 465.41 1415.25 471.48 1400.85 477.55 1386.44 483.61 1359.04 495.74 1335.51 507.86 1317.9 519.95 1307.78 532.01 1305.62 544.02 1311.22 555.96 1324.03 567.84 1342.16 579.6 1363.55 591.22 1386.47 602.74 1408.12 614.07 1426.37 625.16 1439.92 636.09 1447.01 646.73 1446.99 657.03 1440 667.13 1426.24 676.84 1406.76 686.12 1382.95 695.16 1356.41 703.75 1328.93 711.87 1302.15 719.77 1277.71 727.22 1256.89 734.24 1240.65 741.15 1229.55 747.73 1223.67 754.03 1223.05 760.42 1226.87 766.71 1234.25 772.99 1244.62 779.63 1256.37 786.48 1268.32 793.66 1279.89 801.46 1289.55 809.76 1296.47 818.66 1300.5 828.32 1300.74 838.62 1297.08 849.55 1289.8 861.15 1278.83 873.21 1264.64 885.6 1247.72 898.23 1228.62 910.82 1208.03 923.13 1186.41 935 1164.51 946.11 1142.91 956.2 1121.89 965.24 1102.05 972.89 1083.67 979.04 1066.85 983.89 1051.83 987.24 1038.6 989.19 1027.16 990.26 1017.39 990.42 1009.08 989.99 999.35 989.65 985.58 993.39 980.14 999.38 976.91 1005.64 973.45 1013.41 969.59 1022.52 965.69 1032.84 961.18 1043.78 956 1054.84 950.56 1065.62 944.37 1075.4 937.43 1083.64 930.18 1090.13 922.19 1094.35 913.52 1096.12 904.56 1095.79 894.99 1093.28 884.86 1088.98 874.53 1083.78 863.71 1078 852.49 1072.33 841.14 1067.8 829.44 1064.66 817.45 1063.39 811.43 1063.66 805.34 1064.47 799.2 1065.84 793.05 1067.8 786.84 1070.26 780.59 1073.18 774.33 1076.55 768.02 1080.24 761.66 1084.17 755.31 1088.32 748.91 1092.51 742.48 1096.65 736.04 1100.7 729.6 1104.48 723.17 1107.88 716.73 1110.92 710.3 1113.42 703.86 1115.33 697.43 1116.68 691 1117.35 684.57 1117.33 678.15 1116.68 671.72 1115.34 665.3 1113.33 652.45 1107.68 639.6 1099.99 626.76 1090.88 613.92 1081.25 601.07 1071.59 588.23 1062.6 575.4 1055.04 562.58 1049.14 549.79 1045.11 537.03 1043.29 524.33 1043.26 511.71 1044.72 499.18 1047.55 486.77 1050.9 474.52 1054.19 462.42 1057.2 450.54 1059.08 438.91 1059.41 427.51 1058.17 416.4 1054.9 405.63 1049.56 395.12 1042.49 384.96 1033.66 375.16 1023.4 365.59 1012.25 356.36 1000.45 347.43 988.44 338.63 976.73 330.06 965.56 321.66 955.19 313.22 945.99 304.84 937.93 296.47 931.03 287.89 925.44 279.24 920.85 270.48 917.07 261.45 914.15 252.32 911.57 243.14 909.07 233.81 906.7 224.56 903.93 215.5 900.55 206.57 896.69 198.05 891.91 190.08 886.14 182.54 879.57 175.73 871.96 169.69 863.36 164.2 853.98 159.45 843.74 155.37 832.77 151.56 821.27 148.1 809.26 144.79 796.88 141.14 784.29 137.17 771.54 132.66 758.75 127.23 746.01 120.98 733.37 113.86 720.89 105.75 708.63 96.95 696.58 87.71 684.77 78.16 673.24 68.83 661.93 60.15 650.82 52.28 639.97 45.79 629.27 40.98 618.7 37.73 608.32 36.34 598.01 36.72 587.71 38.29 577.55 40.97 567.34 44.25 557.07 47.28 546.88 49.8 536.57 51.28 526.13 51.04 515.73 49.1 505.16 45.38 494.42 39.76 483.7 32.83 472.78 25.09 461.67 21.03 456.12 17.01 450.52 13.12 444.87 9.4 439.22 5.99 433.52 2.98 427.77 0.37 422.02 -1.71 416.22 -3.2 410.37 -4.14 404.53 -4.43 398.64 -4.05 392.7 -3.1 386.76 -1.53 380.81 0.62 374.85 3.23 368.89 6.29 362.93 9.73 356.95 13.4 350.98 17.26 345.01 21.24 339.03 25.18 333.06 29.04 327.08 32.75 321.11 39.24 309.17 44.31 297.24 47.66 285.35 48.93 273.49 48.49 261.68 46.64 249.94 43.53 238.25 40 226.66 36.65 215.19 33.71 203.8 32.01 192.56 31.92 181.5 33.39 170.55 36.8 159.8 42.07 149.29 48.75 138.91 56.78 128.79 65.76 118.96 75.09 109.27 84.53 99.86 93.72 90.77 102.18 81.79 109.85 73.1 116.62 64.7 122.27 56.35 127.06 48.25 131.15 40.35 134.51 32.42 137.59 24.63 140.65 16.93 143.69 9.08 147.16 1.23 151.26 -6.64 155.84 -14.8 161.25 -23.05 167.51 -31.45 174.34 -40.16 181.93 -49.03 190.16 -58.04 198.72 -67.33 207.69 -76.71 216.93 -86.11 226.14 -95.65 235.42 -105.08 244.65 -114.33 253.64 -123.47 262.52 -132.26 271.26 -140.62 279.74 -148.64 288.14 -156.11 296.5 -162.98 304.74 -169.42 313.06 -175.24 321.52 -180.47 330.04 -185.38 338.82 -189.82 347.9 -193.87 357.18 -197.89 366.82 -201.74 376.82 -205.52 387.08 -209.59 397.7 -213.77 408.66 -218.15 419.86 -222.98 431.36 -228.04 443.1 -233.29 455.01 -238.91 467.12 -244.57 479.38 -250.15 491.72 -255.77 504.17 -261.04 516.68 -265.84 529.21 -270.3 541.77 -274.08 554.36 -277.11 566.92 -279.64 579.49 -281.43 592.07 -282.54 604.6 -283.35 617.15 -283.7 629.73 -283.73 642.26 -283.9 654.83 -284.04 667.45 -284.28 673.75 -284.58 680.06 -284.93 686.4 -285.34 692.73 -285.88 699.08 -286.49 705.45 -287.14 711.81 -287.92 718.2 -288.73 724.61 -289.56 731.02 -290.46 737.46 -291.36 743.91 -292.22" stroke-dasharray="6 4" transform="rotate(17.41176470588235, 711, 400)" opacity="0.40"></path><path d="M720.68 -242.62C732.05 -244.46 743.09 -245.94 753.8 -246.91 764.48 -247.53 774.78 -247.43 784.69 -246.57 794.55 -245.19 803.98 -243.06 812.97 -240.25 821.87 -237.11 830.31 -233.5 838.28 -229.56 846.15 -225.67 853.55 -221.72 860.48 -217.82 867.36 -214.3 873.81 -210.99 879.87 -207.9 885.98 -205.28 891.8 -202.85 897.42 -200.54 903.26 -198.51 909.07 -196.41 914.98 -194.12 921.37 -191.8 928.09 -189.06 935.31 -185.84 943.31 -182.29 952.06 -178.12 961.7 -173.32 972.4 -168.08 984.17 -162.22 997.12 -155.8 1011.19 -149.05 1026.45 -141.87 1042.84 -134.36 1060.1 -126.77 1078.23 -119.02 1097 -111.21 1115.97 -103.57 1134.99 -96 1153.66 -88.56 1171.49 -81.45 1188.18 -74.51 1203.25 -67.75 1216.36 -61.34 1227.12 -55.07 1235.18 -48.9 1240.55 -42.97 1242.92 -37.05 1242.27 -31.06 1239.16 -25.17 1233.49 -19.1 1225.69 -12.81 1216.85 -6.46 1207.15 0.19 1197.41 7.2 1188.91 14.38 1182.03 21.94 1177.6 29.89 1176.65 38.07 1179.37 46.63 1186.19 55.55 1197.32 64.7 1212.49 74.17 1231.29 83.94 1253 93.89 1276.71 104.09 1301.25 114.5 1325.32 125.03 1347.65 135.73 1366.9 146.56 1382.02 157.45 1392.02 168.43 1396.23 179.49 1394.73 190.56 1387.44 201.68 1374.92 212.83 1358.66 223.98 1339.59 235.14 1319.33 246.32 1300.09 257.47 1283.18 268.64 1270.22 279.81 1262.89 290.96 1261.71 302.13 1267.14 313.3 1279.17 324.46 1296.87 335.63 1318.97 346.82 1343.85 358.01 1369.4 369.21 1393.44 380.43 1414.04 391.66 1429.22 402.9 1437.53 414.15 1438.42 425.4 1431.55 436.53 1417.68 447.53 1398.23 458.52 1374.75 469.38 1349.29 480.07 1324.03 490.75 1300.93 501.26 1281.75 511.58 1267.99 521.87 1260.42 531.96 1259.31 541.82 1264.73 551.62 1275.65 561.19 1290.87 570.5 1309.31 579.74 1328.88 588.7 1347.83 597.39 1365.02 606 1378.54 614.34 1387.3 622.4 1390.92 630.41 1388.69 638.18 1380.73 645.7 1367.66 653.25 1350.06 660.63 1329.02 667.87 1305.72 675.23 1281.41 682.55 1257.38 689.88 1234.71 697.48 1214.46 705.2 1197.39 713.11 1184.06 721.42 1174.75 730.02 1169.4 738.96 1168.03 748.4 1170.02 758.22 1174.72 768.44 1181.84 779.12 1190.21 790.16 1199.02 801.48 1208 813.07 1215.94 824.78 1222.25 836.48 1226.89 848.09 1229.01 859.41 1228.41 870.26 1225.3 880.58 1219.37 890.13 1210.77 898.74 1199.87 906.47 1186.77 913.07 1171.88 918.47 1155.52 922.9 1138.08 926.19 1119.99 928.42 1101.43 930.02 1082.87 930.9 1064.63 931.3 1046.75 931.77 1029.62 932.32 1013.37 933.22 997.95 935.03 983.57 937.69 970.23 941.42 957.86 946.54 946.46 952.88 935.94 960.39 926.27 969.12 917.3 978.67 908.9 988.73 901.11 999.09 893.67 1009.19 886.46 1018.59 879.62 1027.08 872.81 1034.1 865.94 1039.36 859.25 1042.88 852.35 1044.38 845.19 1043.88 838.08 1041.86 830.62 1038.36 822.8 1033.78 814.94 1028.92 806.69 1024.01 798.02 1019.59 789.3 1016.45 780.17 1014.68 770.64 1014.58 761.06 1016.53 751.09 1020.25 740.75 1025.51 730.39 1032.2 719.68 1039.58 708.63 1047.05 697.59 1054.22 686.38 1060.16 675.02 1064.38 663.7 1066.79 652.26 1066.89 640.74 1064.63 629.28 1060.42 617.77 1054.25 606.24 1046.58 594.79 1038.1 583.36 1029.14 571.98 1020.27 560.72 1012.18 549.54 1005.1 538.49 999.35 527.59 995.34 516.85 992.92 506.3 991.99 495.94 992.63 485.8 994.27 475.92 996.52 466.23 999.28 456.81 1001.81 447.67 1003.7 438.7 1004.87 430.01 1004.72 421.58 1003.04 413.26 999.96 405.17 995.17 397.28 988.77 389.4 981.07 381.66 972.07 374.01 962.06 366.25 951.45 358.52 940.41 350.79 929.24 342.85 918.33 334.85 907.81 326.8 897.88 318.52 888.81 310.2 880.57 301.87 873.19 293.39 866.82 284.98 861.25 276.72 856.35 268.48 852.23 260.52 848.51 252.91 845.03 245.52 841.87 238.59 838.6 232.15 835.09 226.02 831.45 220.39 827.29 215.23 822.54 210.25 817.36 205.57 811.46 201.11 804.82 196.51 797.64 191.86 789.74 187.02 781.16 181.69 772.08 175.98 762.42 169.81 752.26 163.01 741.74 155.78 730.85 148.21 719.65 140.27 708.27 132.3 696.71 124.54 685.03 117.03 673.3 110.19 661.54 104.28 649.79 99.25 638.08 95.45 626.43 92.98 614.85 91.53 603.36 91.28 591.95 92.04 580.63 93.25 569.41 94.88 558.27 96.58 547.2 97.69 536.21 98.17 525.27 97.73 514.38 95.94 503.54 92.96 492.72 88.84 481.91 83.53 471.13 77.53 460.34 71.23 449.53 64.84 438.73 59.07 427.9 54.37 417.04 50.88 406.18 49.14 395.27 49.33 384.33 51.15 373.39 54.7 362.53 59.65 351.78 65.34 341.02 71.54 330.37 77.78 319.83 83.38 309.3 88.19 298.89 91.95 288.62 94.29 278.36 95.41 268.26 95.44 258.32 94.34 248.41 92.67 238.67 90.79 229.13 88.79 219.61 87.32 210.29 86.71 201.18 86.93 192.1 88.43 183.21 91.29 174.53 95.24 165.87 100.46 157.39 106.76 149.09 113.71 140.77 121.29 132.59 129.22 124.55 137.08 116.43 144.83 108.39 152.29 100.42 159.16 92.29 165.54 84.18 171.41 76.05 176.62 67.7 181.44 59.29 185.96 50.8 190.14 42.06 194.29 33.22 198.58 24.28 202.91 15.11 207.61 5.86 212.76 -3.43 218.2 -12.87 224.19 -22.3 230.71 -31.64 237.55 -40.98 244.86 -50.14 252.57 -59.03 260.44 -67.74 268.57 -76.07 276.89 -83.96 285.15 -91.53 293.47 -98.57 301.79 -105.07 309.92 -111.2 317.99 -116.78 326.01 -121.84 333.8 -126.64 341.56 -131.02 349.29 -135.04 356.89 -139.04 364.54 -142.85 372.29 -146.59 380.01 -150.55 387.92 -154.6 396.02 -158.79 404.23 -163.39 412.7 -168.21 421.45 -173.24 430.38 -178.67 439.62 -184.23 449.15 -189.85 458.89 -195.63 468.92 -201.27 479.22 -206.63 489.72 -211.83 500.46 -216.53 511.4 -220.63 522.51 -224.3 533.79 -227.26 545.19 -229.5 556.73 -231.29 568.36 -232.44 580.04 -233.03 591.83 -233.44 603.64 -233.53 615.44 -233.42 627.31 -233.54 639.14 -233.72 650.92 -234.06 662.74 -234.89 674.49 -235.97 686.12 -237.27 697.78 -239.01 709.3 -240.84 720.67 -242.61" stroke-dasharray="3 10" transform="rotate(21.764705882352942, 711, 400)" opacity="0.61"></path><path d="M682.54 -193.01C692.08 -194.92 701.45 -196.49 710.63 -197.61 719.8 -198.42 728.79 -198.57 737.6 -198.02 746.42 -196.98 755.08 -195.22 763.6 -192.79 772.16 -189.97 780.62 -186.62 789.02 -182.87 797.52 -179.05 806.02 -175.04 814.58 -170.98 823.33 -167.16 832.24 -163.47 841.36 -159.95 850.78 -156.87 860.52 -154.01 870.66 -151.34 881.21 -149.07 892.26 -146.89 903.85 -144.73 915.94 -142.74 928.63 -140.59 941.95 -138.19 955.74 -135.67 970.12 -132.72 985.04 -129.3 1000.27 -125.55 1015.87 -121.22 1031.72 -116.33 1047.52 -111.05 1063.24 -105.21 1078.68 -98.87 1093.53 -92.24 1107.65 -85.2 1120.79 -77.85 1132.73 -70.38 1143.23 -62.74 1152.06 -54.98 1159.19 -47.31 1164.36 -39.66 1167.44 -32.06 1168.74 -24.7 1167.99 -17.46 1165.32 -10.35 1161.36 -3.54 1155.98 3.12 1149.57 9.67 1143 15.96 1136.32 22.17 1130.08 28.35 1125.22 34.35 1121.88 40.38 1120.6 46.49 1122.06 52.53 1126.32 58.72 1133.65 65.08 1144.2 71.47 1157.76 78.1 1174.11 84.98 1192.77 91.94 1213.17 99.19 1234.56 106.72 1256.05 114.38 1276.78 122.32 1295.79 130.54 1312.23 138.89 1325.28 147.5 1334.23 156.35 1338.85 165.32 1338.75 174.5 1333.96 183.87 1325.19 193.34 1312.72 202.98 1297.42 212.74 1280.8 222.59 1263.68 232.54 1247.35 242.59 1233.49 252.68 1222.85 262.84 1216.44 273.06 1215.2 283.3 1219.2 293.59 1228.42 303.88 1242.57 314.2 1260.69 324.53 1281.63 334.85 1304.08 345.18 1326.4 355.5 1346.94 365.79 1364.32 376.08 1377.07 386.35 1384.14 396.57 1385.17 406.78 1379.86 416.83 1368.7 426.71 1352.76 436.58 1333.06 446.27 1311.09 455.78 1288.5 465.29 1266.75 474.62 1247.3 483.76 1231.47 492.9 1220.09 501.87 1213.7 510.66 1212.7 519.46 1216.7 528.1 1225.12 536.59 1237.49 545.11 1252.41 553.51 1268.64 561.81 1285.37 570.17 1300.93 578.47 1314.22 586.72 1324.68 595.09 1331.17 603.47 1333.26 611.89 1331.03 620.49 1324.24 629.18 1313.26 637.99 1298.72 647.04 1281.18 656.26 1261.5 665.67 1240.52 675.34 1219.15 685.22 1198.25 695.3 1178.52 705.63 1160.67 716.13 1145.2 726.77 1132.5 737.56 1122.73 748.38 1115.91 759.19 1112.09 769.95 1110.9 780.52 1111.94 790.82 1115.11 800.82 1119.65 810.36 1125 819.31 1131.11 827.72 1137.05 835.39 1142.37 842.23 1150.45 857.1 1139.45 869.34 1127.43 871.13 1117.43 872.38 1106.05 873.73 1093.54 875.38 1080.08 877.74 1065.88 880.74 1051.18 884.52 1036.04 889.38 1020.76 895.17 1005.49 901.88 990.22 909.6 975.21 918.06 960.57 927.07 946.18 936.54 932.27 946.06 918.86 955.33 905.83 964.19 893.32 972.2 881.32 979.06 869.68 984.72 858.49 988.84 847.71 991.29 837.24 992.31 827.08 991.73 817.2 989.72 807.53 986.79 798.05 983 788.71 978.71 779.49 974.61 770.35 970.82 761.23 967.71 752.18 965.9 743.1 965.35 733.98 966.22 724.89 968.78 715.72 972.73 706.47 977.85 697.21 984.06 687.87 990.75 678.42 997.45 668.98 1003.9 659.56 1009.34 650.17 1013.38 640.8 1016 631.47 1016.71 622.21 1015.45 612.97 1012.51 603.82 1007.8 594.78 1001.61 585.78 994.46 576.9 986.54 568.18 978.29 559.5 970.28 550.99 962.72 542.66 955.94 534.38 950.37 526.28 945.98 518.37 942.85 510.5 941.17 502.81 940.62 495.3 941 487.79 942.32 480.43 944.05 473.21 945.87 465.93 947.74 458.74 949.08 451.63 949.63 444.39 949.42 437.18 948.01 429.97 945.31 422.57 941.47 415.13 936.29 407.65 929.84 399.94 922.4 392.16 913.95 384.33 904.69 376.28 894.94 368.21 884.78 360.13 874.44 351.93 864.19 343.78 854.12 335.75 844.37 327.71 835.18 319.87 826.51 312.28 818.43 304.82 811.08 297.67 804.34 290.87 798.14 284.27 792.63 278.02 787.53 272.12 782.77 266.38 778.45 260.91 774.26 255.66 770.09 250.4 766.09 245.23 761.92 240.08 757.5 234.71 752.99 229.23 748.11 223.6 742.79 217.63 737.24 211.46 731.2 205.14 724.67 198.55 717.84 191.93 710.51 185.38 702.73 178.84 694.65 172.64 686.16 166.9 677.29 161.57 668.19 156.95 658.78 153.15 649.1 149.98 639.25 147.69 629.2 146.25 618.99 145.33 608.69 145.04 598.27 145.22 587.77 145.42 577.22 145.68 566.64 145.78 556.03 145.27 545.41 144.24 534.79 142.56 524.19 139.96 513.59 136.65 503.02 132.73 492.49 128.13 481.96 123.28 471.47 118.44 461.03 113.67 450.6 109.49 440.21 106.18 429.87 103.72 419.53 102.54 409.24 102.72 398.99 104 388.75 106.52 378.68 110.09 368.77 114.21 358.86 118.84 349.11 123.67 339.53 128.19 329.94 132.38 320.52 136.02 311.25 138.77 301.97 140.79 292.84 142.09 283.86 142.53 274.86 142.47 266 142.11 257.28 141.42 248.51 140.87 239.87 140.68 231.33 140.79 222.73 141.62 214.22 143.29 205.78 145.62 197.24 148.87 188.76 153.01 180.3 157.73 171.72 163.16 163.15 169.16 154.56 175.39 145.82 181.9 137.05 188.53 128.24 195.01 119.27 201.41 110.25 207.64 101.18 213.51 91.98 219.17 82.75 224.62 73.5 229.74 64.17 234.76 54.88 239.74 45.65 244.59 36.43 249.55 27.36 254.7 18.47 259.93 9.71 265.46 1.21 271.34 -6.95 277.4 -14.88 283.85 -22.42 290.66 -29.53 297.64 -36.33 304.94 -42.67 312.52 -48.53 320.16 -54.1 327.97 -59.23 335.92 -63.93 343.79 -68.45 351.71 -72.65 359.63 -76.58 367.37 -80.52 375.07 -84.33 382.72 -88.07 390.14 -92.04 397.5 -96.08 404.82 -100.25 411.94 -104.78 419.05 -109.5 426.16 -114.42 433.14 -119.71 440.19 -125.16 447.32 -130.7 454.4 -136.47 461.61 -142.19 468.98 -147.77 476.36 -153.3 483.93 -158.5 491.7 -163.26 499.53 -167.69 507.58 -171.55 515.82 -174.76 524.16 -177.52 532.7 -179.62 541.42 -181.08 550.24 -182.2 559.22 -182.8 568.34 -183 577.55 -183.13 586.87 -183.08 596.29 -182.96 605.77 -183.12 615.31 -183.41 624.89 -183.89 634.51 -184.85 644.14 -186.06 653.75 -187.47 663.38 -189.29 672.98 -191.17 682.53 -193.01" stroke-dasharray="1 3" transform="rotate(26.117647058823533, 711, 400)" opacity="0.40"></path><path d="M688.17 -143.41C697.05 -145.34 706.03 -146.97 715.13 -148.2 724.25 -149.17 733.49 -149.57 742.89 -149.32 752.32 -148.64 761.93 -147.29 771.72 -145.28 781.59 -142.87 791.68 -139.92 802 -136.5 812.43 -132.9 823.12 -129.02 834.08 -124.96 845.17 -121.01 856.55 -117.07 868.22 -113.2 880.01 -109.67 892.07 -106.31 904.39 -103.15 916.77 -100.39 929.34 -97.81 942.05 -95.37 954.7 -93.23 967.38 -91.13 979.97 -89 992.32 -86.97 1004.42 -84.75 1016.13 -82.27 1027.33 -79.68 1037.92 -76.7 1047.77 -73.29 1056.82 -69.6 1064.9 -65.41 1071.87 -60.73 1077.82 -55.71 1082.52 -50.2 1085.89 -44.23 1088.18 -37.98 1089.15 -31.34 1088.81 -24.37 1087.64 -17.24 1085.39 -9.88 1082.23 -2.34 1078.78 5.19 1074.9 12.82 1070.88 20.48 1067.41 28.01 1064.42 35.52 1062.29 42.96 1061.63 50.2 1062.44 57.35 1065.03 64.41 1069.77 71.24 1076.64 77.99 1085.74 84.66 1097.09 91.12 1110.53 97.54 1125.85 103.95 1142.7 110.19 1160.7 116.46 1179.35 122.78 1198.03 129 1216.19 135.31 1233.18 141.73 1248.4 148.11 1261.26 154.64 1271.21 161.32 1278.03 168.01 1281.3 174.88 1280.89 181.93 1277.14 189.01 1270.04 196.28 1259.98 203.74 1247.92 211.25 1234.24 218.94 1219.77 226.81 1205.8 234.72 1192.86 242.8 1181.88 251.04 1173.95 259.32 1169.41 267.75 1168.76 276.3 1172.43 284.89 1180.2 293.59 1191.81 302.4 1206.86 311.23 1224.45 320.15 1243.63 329.15 1263.41 338.16 1282.51 347.25 1299.76 356.4 1314.22 365.54 1324.79 374.75 1330.75 384.01 1331.87 393.26 1327.88 402.46 1319.1 411.59 1306.31 420.73 1290.15 429.81 1271.66 438.83 1252.05 447.85 1232.36 456.84 1213.74 465.77 1197.26 474.73 1183.68 483.66 1173.63 492.57 1167.64 501.53 1165.73 510.48 1167.75 519.44 1173.63 528.46 1182.58 537.51 1193.87 546.61 1207.03 555.78 1220.85 565.02 1234.41 574.33 1247.27 583.73 1258.25 593.21 1266.71 602.78 1272.49 612.43 1274.9 622.17 1273.78 631.97 1269.36 641.83 1261.55 651.73 1250.69 661.63 1237.27 671.53 1221.69 681.39 1204.55 691.15 1186.4 700.8 1167.86 710.28 1149.52 719.51 1131.81 728.51 1115.27 737.16 1100.25 745.41 1087.01 753.29 1075.77 760.66 1066.59 767.47 1057.09 776.7 1050.16 791.3 1051.39 796.72 1064.97 809.05 1068.75 822.53 1064.37 828.73 1060.11 833.88 1054.68 839.71 1048.16 846.22 1040.79 853.5 1032.47 861.32 1023.34 869.58 1013.56 878.24 1003.15 887 992.24 895.67 980.92 904.15 969.28 912.1 957.44 919.29 945.38 925.7 933.26 931 921.16 935.05 909 937.97 896.95 939.54 885.05 939.78 873.19 939.02 861.53 937.17 850.1 934.42 838.74 931.3 827.63 927.8 816.76 924.24 805.96 921.16 795.41 918.59 785.09 916.78 774.83 916.16 764.78 916.64 754.95 918.28 745.15 921.26 735.54 925.29 726.1 930.18 716.69 935.88 707.43 941.88 698.32 947.84 689.21 953.6 680.34 958.54 671.71 962.35 663.05 965.06 654.62 966.23 646.39 965.8 638.13 963.97 630.07 960.59 622.2 955.83 614.28 950.09 606.54 943.44 598.95 936.18 591.31 928.79 583.81 921.39 576.44 914.28 568.98 907.86 561.63 902.18 554.37 897.37 546.99 893.69 539.67 891 532.4 889.25 524.97 888.55 517.55 888.55 510.13 889.08 502.53 890.16 494.89 891.34 487.22 892.39 479.36 893.35 471.44 893.76 463.47 893.46 455.32 892.53 447.14 890.64 438.92 887.72 430.58 883.94 422.24 879.11 413.94 873.28 405.59 866.67 397.33 859.22 389.2 851.06 381.12 842.42 373.23 833.34 365.57 823.95 358.04 814.48 350.79 804.96 343.83 795.51 337.06 786.3 330.6 777.35 324.44 768.7 318.44 760.51 312.71 752.7 307.22 745.28 301.8 738.36 296.55 731.8 291.43 725.57 286.24 719.78 281.11 714.22 275.99 708.85 270.71 703.77 265.4 698.76 260.07 693.75 254.57 688.9 249.08 683.95 243.64 678.85 238.13 673.78 232.79 668.48 227.68 662.94 222.7 657.33 218.1 651.43 213.95 645.23 210.09 638.91 206.77 632.29 204.01 625.36 201.59 618.31 199.69 610.97 198.25 603.35 196.99 595.62 196.03 587.65 195.26 579.44 194.34 571.14 193.38 562.65 192.26 553.98 190.7 545.25 188.83 536.37 186.61 527.36 183.85 518.31 180.77 509.16 177.46 499.92 173.83 490.66 170.2 481.33 166.74 471.95 163.4 462.55 160.56 453.12 158.37 443.64 156.73 434.16 155.96 424.66 156.11 415.13 156.93 405.6 158.61 396.15 161.03 386.8 163.81 377.45 167.04 368.18 170.53 358.99 173.91 349.79 177.23 340.67 180.36 331.63 183 322.56 185.3 313.55 187.23 304.6 188.6 295.62 189.68 286.68 190.54 277.77 191.07 268.82 191.6 259.9 192.27 250.99 192.96 242.02 194.01 233.06 195.51 224.1 197.31 215.08 199.68 206.06 202.63 197.03 205.94 187.94 209.8 178.86 214.17 169.78 218.77 160.67 223.73 151.58 228.98 142.53 234.26 133.48 239.67 124.51 245.16 115.63 250.5 106.81 255.84 98.13 261.14 89.63 266.24 81.25 271.32 73.1 276.39 65.21 281.33 57.5 286.33 50.11 291.44 43.06 296.54 36.23 301.83 29.78 307.34 23.71 312.97 17.87 318.89 12.41 325.1 7.32 331.49 2.41 338.19 -2.16 345.19 -6.44 352.33 -10.66 359.74 -14.66 367.38 -18.5 375.09 -22.42 382.97 -26.29 390.97 -30.14 398.95 -34.22 406.99 -38.39 415.06 -42.67 423.01 -47.29 430.94 -52.07 438.84 -57.01 446.56 -62.28 454.22 -67.69 461.83 -73.19 469.23 -78.9 476.57 -84.6 483.88 -90.21 490.99 -95.82 498.09 -101.2 505.19 -106.25 512.12 -111.07 519.08 -115.43 526.09 -119.26 532.98 -122.71 539.96 -125.57 547.03 -127.82 554.01 -129.68 561.12 -130.98 568.37 -131.77 575.55 -132.35 582.89 -132.57 590.4 -132.52 597.86 -132.53 605.5 -132.47 613.3 -132.42 621.09 -132.71 629.05 -133.16 637.19 -133.81 645.32 -134.92 653.63 -136.25 662.12 -137.76 670.61 -139.62 679.28 -141.54 688.16 -143.41" stroke-dasharray="7 8" transform="rotate(30.470588235294116, 711, 400)" opacity="0.69"></path><path d="M728.91 -93.81C737.83 -95.73 746.86 -97.39 756 -98.7 765.16 -99.8 774.43 -100.4 783.82 -100.44 793.23 -100.11 802.74 -99.17 812.35 -97.63 821.97 -95.7 831.67 -93.22 841.43 -90.26 851.17 -87.04 860.93 -83.48 870.69 -79.63 880.37 -75.77 890 -71.79 899.51 -67.76 908.89 -63.93 918.07 -60.18 927.01 -56.55 935.71 -53.25 944.07 -50.12 952.01 -47.16 959.61 -44.54 966.69 -42.05 973.18 -39.67 981.9 -36.48 995.02 -30.05 999.24 -26.48 1002.55 -17.58 1000.51 0.42 998.61 8.19 997.71 13.77 997.04 19.72 996.83 26.01 997.5 32.5 998.99 39.26 1001.48 46.26 1005.31 53.36 1010.42 60.63 1016.94 68.03 1025.02 75.43 1034.57 82.9 1045.6 90.41 1058 97.85 1071.65 105.28 1086.35 112.69 1101.79 119.98 1117.74 127.23 1133.83 134.43 1149.66 141.48 1164.86 148.49 1179.02 155.46 1191.75 162.29 1202.69 169.09 1211.45 175.87 1217.92 182.53 1221.76 189.2 1222.85 195.88 1221.41 202.47 1217.33 209.1 1210.79 215.78 1202.43 222.4 1192.35 229.09 1181.05 235.87 1169.44 242.61 1157.8 249.45 1146.78 256.4 1137.31 263.32 1129.64 270.36 1124.33 277.54 1122 284.69 1122.69 291.98 1126.56 299.41 1133.72 306.83 1143.83 314.38 1156.54 322.07 1171.41 329.76 1187.73 337.59 1204.74 345.55 1221.7 353.51 1237.72 361.61 1251.94 369.84 1263.76 378.07 1272.41 386.44 1277.36 394.94 1278.52 403.44 1275.63 411.98 1268.9 420.56 1258.89 429.13 1245.96 437.75 1230.82 446.39 1214.34 455.05 1197.2 463.74 1180.24 472.46 1164.31 481.19 1150.01 489.96 1137.94 498.76 1128.64 507.58 1122.31 516.42 1119.07 525.29 1119.07 534.16 1121.97 543.05 1127.44 551.95 1135.32 560.84 1144.83 569.73 1155.39 578.58 1166.72 587.41 1177.89 596.18 1188.3 604.87 1197.78 613.5 1205.5 622.01 1211.11 630.38 1214.61 638.62 1215.52 646.67 1213.79 654.49 1209.63 662.12 1202.95 669.48 1193.98 676.51 1183.05 683.32 1170.38 689.75 1156.37 695.79 1141.36 701.57 1125.73 706.92 1109.88 711.84 1094.1 716.5 1078.75 720.74 1064.12 724.57 1050.4 728.21 1037.81 731.49 1026.48 734.46 1016.51 737.38 1007.93 740.09 1000.69 742.66 992.56 746.73 983.59 755.75 981.87 761.15 981.72 767.71 982.71 783.93 982.97 793.65 982.99 800.79 982.52 808.28 981.49 816.03 980.17 824.04 978.18 832.08 975.51 840.01 972.44 847.8 968.67 855.2 964.22 862.05 959.36 868.35 953.87 873.83 947.79 878.39 941.36 882.1 934.41 884.77 927.02 886.35 919.34 887.08 911.3 886.82 902.95 885.64 894.42 883.92 885.65 881.59 876.69 878.82 867.63 876.07 858.44 873.31 849.17 870.75 839.85 868.82 830.49 867.46 821.12 866.82 811.74 867.22 802.37 868.51 793.03 870.7 783.7 873.93 774.41 877.91 765.19 882.49 755.97 887.65 746.81 892.99 737.71 898.24 728.62 903.33 719.68 907.76 710.9 911.3 702.11 914.01 693.46 915.5 684.94 915.71 676.39 914.8 667.95 912.59 659.62 909.16 651.23 904.82 642.93 899.53 634.69 893.51 626.38 887.11 618.12 880.4 609.9 873.61 601.59 867.07 593.3 860.84 585.01 855.07 576.63 850.05 568.25 845.71 559.85 842.09 551.36 839.38 542.86 837.38 534.34 836.02 525.75 835.41 517.16 835.24 508.58 835.37 499.96 835.87 491.36 836.37 482.82 836.72 474.3 836.99 465.86 836.84 457.53 836.15 449.29 835.02 441.2 833.18 433.29 830.58 425.52 827.37 417.98 823.34 410.7 818.54 403.59 813.12 396.76 807 390.22 800.24 383.88 793.02 377.83 785.32 372.06 777.21 366.47 768.88 361.13 760.31 356.03 751.6 351.03 742.88 346.22 734.15 341.57 725.49 336.92 717 332.38 708.65 327.92 700.49 323.37 692.6 318.86 684.93 314.37 677.48 309.76 670.33 305.17 663.39 300.62 656.63 295.95 650.16 291.36 643.83 286.88 637.61 282.37 631.62 278.04 625.69 273.92 619.79 269.88 614.04 266.13 608.26 262.69 602.43 259.4 596.69 256.44 590.85 253.83 584.89 251.35 578.97 249.17 572.89 247.26 566.66 245.38 560.43 243.67 554.03 242.08 547.44 240.37 540.83 238.67 534.04 236.93 527.06 234.95 520.05 232.89 512.86 230.73 505.5 228.32 498.11 225.86 490.54 223.41 482.81 220.82 475.07 218.37 467.16 216.13 459.1 213.99 451.04 212.22 442.82 210.9 434.47 209.88 426.12 209.4 417.63 209.51 409.02 209.96 400.4 210.95 391.76 212.43 383.11 214.12 374.45 216.15 365.79 218.43 357.11 220.69 348.44 223.05 339.75 225.42 331.06 227.58 322.38 229.66 313.68 231.65 304.99 233.36 296.3 234.97 287.62 236.53 278.94 237.89 270.27 239.28 261.61 240.76 252.98 242.2 244.36 243.83 235.78 245.72 227.24 247.71 218.73 250.03 210.28 252.7 201.92 255.52 193.6 258.71 185.39 262.22 177.3 265.87 169.29 269.8 161.43 273.98 153.75 278.19 146.17 282.57 138.8 287.07 131.65 291.51 124.65 296.01 117.89 300.56 111.4 304.98 105.07 309.43 99.02 313.91 93.26 318.28 87.66 322.7 82.34 327.2 77.31 331.66 72.4 336.25 67.74 341 63.32 345.81 58.96 350.83 54.79 356.09 50.78 361.49 46.73 367.17 42.77 373.14 38.87 379.29 34.83 385.73 30.77 392.46 26.67 399.38 22.33 406.56 17.9 413.98 13.35 421.55 8.52 429.31 3.56 437.26 -1.51 445.27 -6.86 453.42 -12.3 461.66 -17.8 469.91 -23.45 478.21 -29.08 486.55 -34.63 494.83 -40.18 503.12 -45.53 511.4 -50.61 519.58 -55.52 527.74 -60.05 535.87 -64.14 543.88 -67.92 551.87 -71.2 559.84 -73.94 567.69 -76.33 575.53 -78.2 583.37 -79.55 591.11 -80.64 598.86 -81.31 606.66 -81.61 614.36 -81.84 622.12 -81.85 629.95 -81.72 637.71 -81.75 645.58 -81.79 653.55 -81.92 661.47 -82.38 669.53 -83.03 677.74 -83.87 685.91 -85.12 694.25 -86.55 702.78 -88.13 711.28 -90.02 719.99 -91.94 728.9 -93.8" stroke-dasharray="6 1" transform="rotate(34.8235294117647, 711, 400)" opacity="0.19"></path><path d="M742.09 -44.2C750.36 -46.08 758.52 -47.74 766.56 -49.09 774.59 -50.28 782.49 -51.05 790.25 -51.35 797.98 -51.34 805.55 -50.8 812.93 -49.73 820.26 -48.31 827.38 -46.37 834.26 -43.95 841.07 -41.26 847.6 -38.17 853.83 -34.74 859.95 -31.19 865.74 -27.42 871.17 -23.5 878.9 -17.68 892.1 -6.34 897.52 -1.05 905.92 7.86 914.69 19.1 916.72 22.45 921.51 29.3 932.64 41.67 938.78 46.9 943.91 50.67 949.82 54.79 956.6 59.24 964.31 63.9 972.94 68.89 982.48 74.19 992.91 79.69 1004.17 85.48 1016.19 91.54 1028.8 97.74 1041.92 104.17 1055.38 110.8 1068.93 117.53 1082.42 124.41 1095.6 131.42 1108.21 138.47 1120.04 145.62 1130.82 152.83 1140.37 160.04 1148.43 167.3 1154.81 174.57 1159.48 181.82 1162.23 189.07 1162.96 196.32 1161.92 203.52 1158.94 210.71 1154.15 217.9 1148.02 225.02 1140.51 232.13 1131.93 239.25 1122.93 246.29 1113.6 253.35 1104.34 260.41 1095.87 267.42 1088.31 274.44 1082.06 281.49 1077.69 288.5 1075.28 295.55 1075.04 302.63 1077.3 309.69 1081.91 316.8 1088.85 323.96 1098.05 331.11 1109.15 338.32 1121.82 345.61 1135.68 352.88 1150.17 360.23 1164.74 367.66 1178.91 375.09 1192.01 382.6 1203.48 390.21 1212.96 397.81 1219.91 405.5 1223.96 413.29 1225.12 421.07 1223.13 428.86 1218.13 436.64 1210.53 444.42 1200.5 452.19 1188.49 459.94 1175.1 467.69 1160.76 475.43 1146.05 483.13 1131.59 490.81 1117.82 498.46 1105.23 506.06 1094.28 513.63 1085.24 521.14 1078.32 528.57 1073.79 535.96 1071.57 543.25 1071.58 550.42 1073.87 557.53 1078.04 564.51 1083.79 571.33 1091.03 578.06 1099.14 584.62 1107.72 590.98 1116.66 597.24 1125.29 603.27 1133.22 609.07 1140.44 614.75 1146.34 620.18 1150.72 625.35 1154.17 632.78 1149.15 646.17 1140.8 652.17 1133.13 656.03 1124 659.69 1113.62 663.17 1102.22 666.67 1090 670.05 1077.21 673.35 1064.01 676.78 1050.67 680.2 1037.39 683.66 1024.28 687.37 1011.57 691.19 999.39 695.19 987.8 699.52 976.94 704.1 966.86 708.94 957.59 714.18 949.14 719.72 941.51 725.57 934.7 731.8 928.64 738.31 923.26 745.06 918.6 752.1 914.48 759.29 910.82 766.56 907.69 773.91 904.86 781.19 902.22 788.3 899.93 795.23 897.68 801.81 895.4 807.92 892.16 816.13 884.76 828.18 880.37 831.72 875.55 833.47 863.95 832.39 857.14 830.03 852.36 828.13 847.22 825.98 841.72 823.75 836.13 821.77 830.21 819.98 823.98 818.53 817.67 817.72 811.08 817.46 804.22 817.82 797.31 819.02 790.16 820.9 782.78 823.44 775.37 826.74 767.76 830.56 759.96 834.76 752.15 839.37 744.16 844.06 736.01 848.64 727.85 853.09 719.64 857.01 711.37 860.24 703.11 862.87 694.81 864.55 686.46 865.23 678.13 865.06 669.76 863.82 661.36 861.57 652.97 858.52 644.55 854.59 636.12 849.9 627.69 844.74 619.25 839.08 610.8 833.1 602.38 827.07 593.95 821.01 585.54 815.06 577.16 809.46 568.81 804.21 560.49 799.38 552.24 795.17 544.05 791.48 535.94 788.33 527.92 785.85 520 783.87 512.21 782.34 504.54 781.35 497.03 780.66 489.69 780.18 482.51 780 475.53 779.84 468.77 779.59 462.18 779.36 455.84 778.86 449.74 778.01 441 776.16 425.04 769.35 417.8 764.22 413.17 760.18 408.75 755.56 404.52 750.41 400.34 744.87 396.31 738.85 392.41 732.4 388.48 725.66 384.63 718.59 380.85 711.24 376.96 703.72 373.11 696.01 369.26 688.17 365.27 680.28 361.28 672.33 357.29 664.37 353.15 656.45 349.01 648.57 344.9 640.75 340.68 633.03 336.52 625.4 332.45 617.87 328.32 610.47 324.33 603.17 320.5 595.97 316.7 588.91 313.09 581.93 309.7 575.02 306.39 568.24 303.31 561.52 300.47 554.83 297.71 548.24 295.18 541.67 292.85 535.1 290.58 528.6 288.47 522.07 286.53 515.52 284.56 509.01 282.71 502.44 280.96 495.81 279.14 489.21 277.4 482.52 275.74 475.75 273.99 468.99 272.34 462.14 270.8 455.18 269.22 448.23 267.8 441.17 266.57 434 265.36 426.83 264.4 419.55 263.72 412.16 263.13 404.76 262.86 397.26 262.9 389.64 263.06 382.03 263.52 374.4 264.27 366.76 265.09 359.12 266.15 351.48 267.41 343.85 268.67 336.22 270.07 328.6 271.59 321.01 273.04 313.42 274.58 305.87 276.2 298.36 277.72 290.87 279.33 283.44 281.03 276.07 282.68 268.73 284.45 261.47 286.36 254.31 288.28 247.19 290.39 240.17 292.7 233.28 295.08 226.45 297.68 219.75 300.52 213.21 303.45 206.73 306.6 200.42 309.98 194.29 313.41 188.24 317.03 182.37 320.81 176.7 324.59 171.11 328.49 165.72 332.48 160.53 336.39 155.4 340.35 150.47 344.35 145.73 350.16 138.77 361.61 125.65 367.28 119.4 372.81 113.15 384.18 100.74 390.14 94.44 394.19 90.06 398.44 85.63 402.89 81.13 407.44 76.41 412.24 71.61 417.29 66.71 422.5 61.6 427.98 56.41 433.72 51.14 439.65 45.7 445.84 40.23 452.29 34.76 458.91 29.2 465.77 23.71 472.85 18.33 480.08 12.98 487.5 7.83 495.08 2.93 502.79 -1.81 510.63 -6.22 518.59 -10.27 526.62 -14.05 534.74 -17.41 542.93 -20.32 551.16 -22.93 559.43 -25.09 567.74 -26.79 576.06 -28.23 584.4 -29.27 592.74 -29.94 601.08 -30.47 609.42 -30.73 617.76 -30.78 626.09 -30.86 634.41 -30.85 642.71 -30.8 651.02 -30.96 659.31 -31.2 667.6 -31.55 675.88 -32.23 684.16 -33.08 692.44 -34.09 700.71 -35.46 708.99 -36.98 717.26 -38.61 725.54 -40.49 733.81 -42.37 742.08 -44.2" stroke-dasharray="7 6" transform="rotate(39.1764705882353, 711, 400)" opacity="0.72"></path><path d="M707.43 5.39C714.21 3.58 720.79 1.98 727.16 0.61 733.52 -0.62 739.67 -1.51 745.59 -2.02 754.34 -2.2 770.65 0.12 778.21 2.62 785.5 5.96 798.97 14.73 805.18 19.93 811.24 25.4 822.72 36.8 828.29 42.48 834.01 47.87 845.92 57.9 852.35 62.49 857 65.28 861.9 67.99 867.09 70.62 872.68 73.05 878.65 75.45 885.03 77.83 891.87 80.09 899.19 82.39 906.99 84.75 915.28 87.06 924.06 89.5 933.33 92.07 943.02 94.68 953.14 97.47 963.65 100.46 974.41 103.54 985.43 106.85 996.6 110.4 1007.77 114.08 1018.89 118 1029.82 122.19 1040.42 126.51 1050.58 131.08 1060.14 135.89 1069 140.84 1077 146.01 1084.01 151.4 1089.99 156.9 1094.77 162.6 1098.25 168.47 1100.53 174.44 1101.43 180.56 1100.94 186.81 1099.31 193.14 1096.38 199.57 1092.25 206.1 1087.3 212.67 1081.44 219.32 1074.86 226.03 1068.05 232.76 1060.97 239.55 1053.88 246.37 1047.3 253.2 1041.22 260.06 1035.92 266.94 1031.84 273.82 1028.99 280.72 1027.54 287.62 1027.82 294.52 1029.74 301.43 1033.36 308.35 1038.77 315.26 1045.8 322.17 1054.32 329.08 1064.21 335.99 1075.16 342.91 1086.89 349.83 1099.12 356.74 1111.45 363.66 1123.49 370.58 1134.95 377.49 1145.37 384.41 1154.4 391.33 1161.84 398.25 1167.3 405.17 1170.57 412.08 1171.67 418.99 1170.4 425.82 1166.84 432.55 1161.28 439.27 1153.77 445.9 1144.58 452.43 1134.13 458.95 1122.65 465.36 1110.51 471.66 1098.14 477.94 1085.83 484.11 1073.94 490.14 1062.84 496.16 1052.75 502.04 1043.9 507.78 1036.55 513.5 1030.76 519.06 1026.59 524.48 1023.78 532.48 1028.1 547.66 1034.34 554.83 1039.85 559.54 1045.92 564.1 1052.28 568.52 1058.96 572.94 1065.46 577.23 1071.54 581.4 1079.73 587.67 1090.21 599.91 1091.82 605.99 1090.5 612.27 1079.79 625.27 1070.73 632.13 1063.41 636.95 1055.21 641.92 1046.26 647.03 1036.69 652.39 1026.6 657.92 1016.15 663.61 1005.4 669.54 994.5 675.63 983.57 681.86 972.64 688.27 961.86 694.78 951.3 701.34 940.96 707.99 930.95 714.62 921.32 721.18 912.05 727.69 903.2 734.01 894.78 740.1 886.76 745.97 879.16 751.5 871.97 756.61 865.16 761.35 858.72 765.59 852.6 769.28 844.05 773.81 828.48 779.11 821.23 779.91 814.35 779.61 800.83 776.56 794.03 774.27 787.23 772.04 773.05 768.53 765.58 767.77 757.93 768.28 741.69 772.62 733.07 776.43 727.25 779.66 721.23 783.21 715.03 786.99 708.81 791.04 702.41 795.1 695.83 799.04 689.24 802.87 682.57 806.29 675.81 809.19 669.06 811.65 662.25 813.41 655.39 814.41 648.54 814.78 641.66 814.32 634.76 813.04 627.89 811.12 621.01 808.45 614.14 805.07 607.32 801.21 600.53 796.81 593.78 791.96 587.1 786.89 580.48 781.57 573.93 776.11 567.48 770.71 561.11 765.35 554.87 760.13 548.72 755.21 542.7 750.56 536.84 746.21 531.08 742.32 525.48 738.79 520.06 735.62 512.19 731.79 497.54 726.32 490.78 724.44 484.33 723.11 472.4 720.66 466.87 719.21 461.47 717.47 451.13 712.26 446.09 708.61 440.93 704.21 430.42 693.01 424.99 686.25 421.2 681.37 417.36 676.15 413.49 670.62 409.44 664.89 405.36 658.89 401.26 652.66 397.03 646.28 392.79 639.72 388.58 633.01 384.29 626.2 380.06 619.29 375.91 612.29 371.75 605.26 367.71 598.17 363.83 591.05 360 583.93 356.35 576.8 352.91 569.68 349.57 562.58 346.45 555.5 343.57 548.44 340.8 541.41 338.27 534.42 335.98 527.45 333.79 520.53 331.83 513.63 330.08 506.76 328.4 499.93 326.92 493.12 325.62 486.33 324.35 479.57 323.23 472.82 322.27 466.08 321.3 459.37 320.47 452.65 319.77 445.94 319.03 439.24 318.43 432.53 317.95 425.82 317.43 419.12 317.04 412.41 316.78 405.68 316.48 398.96 316.31 392.23 316.29 385.49 316.23 378.75 316.3 372.08 316.52 365.48 316.7 358.88 317.01 352.36 317.47 345.92 317.89 339.48 318.45 333.13 319.15 326.86 319.84 320.6 320.68 314.44 321.67 308.38 322.68 302.32 323.87 296.38 325.24 290.54 326.66 284.72 328.28 279.01 330.12 273.43 332.05 267.86 334.21 262.42 336.59 257.11 339.08 251.81 341.81 246.63 344.77 241.59 347.82 236.56 351.08 231.65 354.54 226.87 358.06 222.08 361.75 217.41 365.58 212.84 369.41 208.26 373.35 203.77 377.36 199.36 381.31 194.91 385.3 190.53 389.31 186.2 395.13 179.61 406.45 166.38 411.91 159.68 417.08 152.74 427.12 138.46 432.05 131.08 435.24 125.99 438.48 120.86 441.8 115.68 445.07 110.38 448.45 105.06 451.95 99.74 455.47 94.34 459.15 88.98 462.99 83.69 466.9 78.39 471 73.2 475.3 68.17 479.71 63.21 484.32 58.46 489.14 53.96 494.08 49.61 499.24 45.56 504.59 41.84 510.08 38.33 515.76 35.19 521.62 32.41 527.6 29.89 533.75 27.74 540.05 25.96 546.45 24.4 552.99 23.19 559.64 22.31 566.38 21.56 573.22 21.07 580.13 20.8 587.11 20.56 594.15 20.45 601.22 20.43 608.36 20.3 615.51 20.18 622.67 20.03 629.87 19.64 637.06 19.16 644.22 18.56 651.41 17.67 658.56 16.63 665.66 15.46 672.77 14 679.82 12.44 686.79 10.81 693.77 8.97 700.65 7.15 707.42 5.39" stroke-dasharray="8 4" transform="rotate(43.529411764705884, 711, 400)" opacity="0.15"></path><path d="M678.25 54.99C686.49 52.53 702.7 48.71 710.69 47.56 721.34 46.8 731.86 47.51 742.32 49.71 752.94 52.87 763.65 57.41 774.58 63.12 785.89 69.34 797.65 76.29 810 83.7 822.96 90.91 836.74 98.18 851.39 105.31 866.75 111.81 883.01 118.04 900.05 124 917.48 129.29 935.29 134.46 953.09 139.6 970.33 144.35 986.7 149.33 1001.56 154.66 1014.5 159.96 1024.91 165.81 1032.22 172.27 1036.62 178.94 1037.47 186.32 1034.75 194.37 1029.59 202.71 1021.75 211.72 1012.03 221.31 1002.33 231.16 992.92 241.52 985.06 252.29 980.6 263.24 979.77 274.52 983.32 286.04 991.89 297.66 1004.86 309.45 1021.53 321.34 1040.97 333.27 1061.37 345.26 1080.86 357.25 1089.81 363.24 1097.84 369.23 1104.72 375.21 1110.41 381.19 1114.6 387.15 1117.18 393.09 1118.2 399.03 1117.48 404.88 1115.07 410.63 1111.19 416.39 1105.81 422.04 1099.09 427.6 1082.64 438.71 1063.17 449.43 1042.56 459.77 1022.8 470.12 1005.19 480.12 990.96 489.78 981.16 499.53 975.8 509.03 974.67 518.32 977.81 527.82 983.82 537.25 991.57 546.68 1000.81 556.47 1009.59 566.4 1016.91 576.55 1022.86 587.17 1025.92 598.08 1025.8 609.27 1023.04 620.88 1016.98 632.67 1007.98 644.5 996.7 656.4 983.23 668 968.16 679.03 951.93 689.5 934.99 698.93 917.82 707.01 900.52 713.94 883.55 719.2 867.17 722.67 851.19 724.92 835.96 725.55 821.5 724.78 807.55 723.56 794.27 721.69 781.6 719.62 769.29 718.44 757.4 717.96 745.83 718.53 734.45 720.93 723.23 724.67 712.12 729.62 706.58 732.65 701.05 735.86 695.53 739.17 690.01 742.66 684.49 746.11 678.98 749.43 673.46 752.69 668.01 755.62 662.63 758.15 657.24 760.4 651.93 762.12 646.69 763.29 636.21 764.28 626.07 762.76 616.3 758.83 606.58 753.22 597.29 745.75 588.48 736.93 579.74 727.66 571.49 718 563.76 708.46 556.04 699.74 548.79 691.74 541.98 684.63 535.03 678.86 528.39 673.95 521.99 669.74 515.21 666.54 508.49 663.59 501.74 660.62 494.41 657.95 486.92 654.77 479.22 650.89 470.89 646.71 462.38 641.57 453.74 635.43 444.69 628.74 435.73 621.03 427 612.41 418.3 603.27 410.14 593.35 402.69 582.79 395.71 571.89 389.66 560.52 384.64 548.8 380.24 536.92 376.86 524.82 374.48 512.61 372.5 500.34 371.29 488.02 370.77 475.71 370.2 463.4 370.03 451.13 370.17 438.94 370.08 432.85 370.04 426.77 370.03 420.72 369.89 414.68 369.77 408.65 369.69 402.66 369.37 393.72 368.76 376.32 368.54 367.86 368.09 356.64 368.12 345.79 368.73 335.33 369.49 324.82 371.11 314.66 373.64 304.84 376.7 294.94 380.82 285.31 385.96 275.93 391.68 266.38 398.33 257 405.77 247.74 413.46 238.21 421.66 228.71 430.19 219.2 438.49 209.35 446.84 199.44 455.11 189.47 462.8 179.19 470.3 168.89 477.58 158.67 484.22 148.33 490.72 138.25 497.17 128.58 503.14 119.15 509.25 110.42 515.58 102.55 521.71 95.31 528.24 89.15 535.23 84.18 542.24 79.94 549.81 76.87 557.93 74.89 566.18 73.32 574.98 72.51 584.27 72.24 593.71 71.68 603.58 71.19 613.8 70.56 624.12 69.04 634.71 67.11 645.48 64.79 653.6 62.51 669.99 57.51 678.24 54.99" stroke-dasharray="2 10" transform="rotate(47.88235294117647, 711, 400)" opacity="0.21"></path><path d="M699.44 104.59C709.4 101.49 719.7 99.04 730.34 97.43 741.02 96.31 752.09 96.31 763.53 97.5 775.08 99.42 787.06 102.54 799.43 106.75 811.92 111.54 824.8 117.19 837.98 123.52 851.19 130.03 864.58 136.92 877.98 144.03 891.13 150.92 904 157.81 916.31 164.62 927.91 170.97 938.51 177.2 947.8 183.28 955.83 188.9 962.13 194.46 966.43 200.01 969.46 207.9 963.22 224.29 955.19 233.14 949.31 239.14 943.15 245.55 937.37 252.38 933.26 259.28 930.78 266.61 930.53 274.36 933.36 282.18 939.07 290.41 947.74 299 959.42 307.65 973.42 316.62 989.03 325.87 1005.6 335.16 1021.9 344.7 1036.79 354.44 1049.52 364.19 1058.8 374.14 1063.79 384.24 1064.51 394.34 1060.44 404.36 1052.04 414.28 1040.36 424.22 1025.88 434.09 1009.71 443.89 993.09 453.73 976.8 463.55 961.78 473.35 948.91 483.24 938.53 493.16 930.88 503.13 926.34 513.24 924.46 523.42 924.84 533.67 927.58 544.06 931.61 554.51 936.29 564.96 941.76 575.46 946.76 585.88 950.8 596.09 954.24 606.15 956.02 615.83 955.98 624.95 954.65 633.63 951.36 641.52 946.23 648.47 939.81 654.7 931.82 659.82 922.51 663.72 912.3 666.86 901.16 668.84 889.39 669.72 877.14 670.14 864.58 669.8 851.91 668.91 839.11 668.24 826.39 667.55 813.9 667.09 801.42 667.61 789.24 668.79 777.42 670.78 765.66 674.07 754.26 678.17 743.24 682.93 732.27 688.56 721.64 694.33 711.38 699.83 701.12 705.13 691.42 709.26 682.25 711.94 673.04 713.48 664.31 713.21 656.05 711.12 647.68 707.73 639.72 702.72 632.12 696.35 624.35 689.24 616.87 681.3 609.62 672.86 602.11 664.48 594.74 656.11 587.43 647.97 579.77 640.49 572.07 633.48 564.31 626.98 556.1 621.32 547.77 616.11 539.29 611.26 530.41 607.06 521.42 602.99 512.36 598.91 503.07 595.16 493.86 591.15 484.85 586.79 475.91 582.44 467.39 577.58 459.43 572.16 451.87 566.59 445.09 560.4 439.21 553.62 433.96 546.65 429.69 539.1 426.45 531.05 423.81 522.82 422.1 514.15 421.26 505.09 420.72 495.94 420.79 486.45 421.37 476.72 421.77 466.93 422.37 456.94 423.06 446.79 423.18 436.62 423.2 426.32 423.08 415.91 422.27 405.51 421.4 395.25 420.54 385.14 419.29 375.03 418.33 365.05 417.8 355.22 417.33 345.34 417.59 335.57 418.67 325.89 420.23 316.14 422.8 306.45 426.38 296.82 430.62 287.07 435.86 277.35 442.03 267.66 448.72 257.86 456.16 248.1 464.19 238.4 472.43 228.65 481.02 219.02 489.83 209.59 498.48 200.23 507.16 191.18 515.76 182.54 523.96 174.17 532 166.36 539.88 159.24 547.26 152.55 554.51 146.67 561.67 141.67 568.38 137.17 575.09 133.57 581.86 130.85 588.31 128.49 594.93 126.86 601.79 125.86 608.45 124.86 615.42 124.19 622.76 123.72 629.97 122.79 637.61 121.76 645.68 120.55 653.69 118.59 662.16 116.34 671.12 113.86 680.04 110.74 689.47 107.58 699.44 104.59" stroke-dasharray="6 9" transform="rotate(52.235294117647065, 711, 400)" opacity="0.82"></path><path d="M738.4 154.2C747.51 151.44 756.74 149.2 766.04 147.58 775.35 146.26 784.72 145.75 794.1 146.12 803.44 146.99 812.72 148.79 821.86 151.48 830.86 154.68 839.6 158.69 847.95 163.41 856.03 168.46 863.56 174.08 870.42 180.13 876.81 186.28 882.35 192.71 886.91 199.32 890.87 205.82 893.74 212.39 895.45 218.98 896.55 225.33 896.54 231.66 895.46 237.95 894.03 243.97 891.81 249.98 888.99 255.98 886.39 261.75 883.69 267.58 881.21 273.48 879.75 279.21 879.09 285.09 879.56 291.13 881.76 297.06 885.51 303.21 890.96 309.59 898.35 315.92 907.4 322.51 917.91 329.37 929.78 336.21 942.46 343.33 955.44 350.74 968.39 358.13 980.53 365.82 991.24 373.78 1000.26 381.75 1006.79 390 1010.39 398.53 1011.24 407.06 1008.86 415.68 1003.49 424.35 995.81 433.03 985.87 441.78 974.24 450.56 961.68 459.35 948.53 468.18 935.36 477.02 922.79 485.85 911.1 494.68 900.61 503.46 891.73 512.2 884.41 520.85 878.69 529.35 874.77 537.74 872.27 545.92 870.97 553.79 871.05 561.46 871.85 568.73 873.06 575.51 875.85 584.91 880.05 599.93 880.35 605.3 879.2 609.35 871.13 613.61 864.32 614.25 859.04 614.61 852.95 614.78 846.17 614.87 839.08 615.45 831.44 616.23 823.36 617.32 815.11 619.2 806.53 621.54 797.73 624.36 788.86 627.99 779.83 632.02 770.72 636.31 761.59 641.09 752.4 645.81 743.19 650.23 733.98 654.51 724.96 657.96 716.13 660.41 707.27 662.18 698.57 662.71 690.02 661.96 681.4 660.35 672.87 657.48 664.42 653.47 655.86 648.76 647.32 643.14 638.78 636.79 630.1 630.13 621.39 623.02 612.65 615.66 603.76 608.38 594.82 601.07 585.88 593.85 576.84 586.98 567.82 580.3 558.89 573.83 549.99 567.82 541.27 562.02 532.82 556.39 524.57 551.16 516.73 546.02 509.39 540.91 502.45 536.09 496.15 531.18 490.58 526.14 485.54 521.25 481.3 516.14 477.92 510.77 475.08 505.45 473.07 499.82 471.88 493.85 471.06 487.88 470.91 481.56 471.36 474.9 471.88 468.21 472.76 461.17 473.91 453.8 474.76 446.42 475.63 438.7 476.45 430.69 476.67 422.67 476.68 414.36 476.47 405.77 475.57 397.18 474.51 388.52 473.36 379.83 471.76 371.14 470.28 362.42 469.04 353.69 467.71 344.96 466.88 336.23 466.63 327.53 466.66 318.83 467.47 310.17 469.1 301.58 471.24 293.02 474.28 284.57 478.19 276.25 482.67 268.02 487.97 259.98 494.01 252.19 500.51 244.55 507.62 237.23 515.24 230.29 523.11 223.59 531.33 217.34 539.8 211.61 548.32 206.18 556.96 201.32 565.65 197.07 574.22 193.12 582.78 189.78 591.29 187.05 599.59 184.54 607.84 182.56 616.03 181.07 624 179.6 631.95 178.47 639.89 177.61 647.65 176.52 655.47 175.51 663.37 174.52 671.14 173.07 679.07 171.51 687.17 169.8 695.2 167.54 703.47 165.14 711.99 162.64 720.49 159.73 729.29 156.87 738.4 154.2" stroke-dasharray="6 10" transform="rotate(56.588235294117645, 711, 400)" opacity="0.73"></path><path d="M735.21 203.8C742.44 201.46 749.37 199.51 755.98 198.01 765.68 196.26 783.08 196.14 790.64 197.9 797.56 200.81 808.56 210.12 812.55 216.31 815.79 223.26 819.51 239.08 820.24 247.66 820.72 253.46 820.96 259.4 821.09 265.44 821.58 271.42 822.18 277.46 823.01 283.56 824.51 289.55 826.49 295.59 829.07 301.65 832.58 307.61 836.86 313.62 841.98 319.66 848.12 325.62 855.1 331.65 862.88 337.74 871.48 343.77 880.68 349.89 890.27 356.11 900.19 362.28 910.08 368.58 919.65 374.99 928.81 381.39 937.11 387.92 944.24 394.58 950.2 401.24 954.53 408.03 957 414.96 957.83 421.9 956.65 428.8 953.57 435.64 949.02 442.49 942.87 449.27 935.38 455.96 926.99 462.63 917.76 469.2 907.97 475.62 898.01 482 887.98 488.2 878.13 494.19 868.74 500.11 859.84 505.78 851.59 511.15 844.16 516.42 837.5 521.36 831.6 525.93 824.48 532.37 814.62 542.99 811.35 547.11 804 556.25 794.01 562.66 789.38 564.64 784.14 567.38 770.99 574.56 763.15 579.03 757.72 582.51 751.85 586.09 745.56 589.7 739.25 593.54 732.55 597.22 725.47 600.62 718.4 603.94 711.14 606.68 703.73 608.77 696.34 610.49 688.81 611.42 681.18 611.52 673.58 611.12 665.87 609.87 658.11 607.8 650.38 605.23 642.61 601.92 634.82 597.94 627.1 593.58 619.4 588.68 611.76 583.33 604.24 577.78 596.82 571.92 589.58 565.82 582.5 559.71 575.66 553.47 569.12 547.17 562.83 540.97 556.91 534.77 551.43 528.59 546.27 522.59 541.6 516.63 537.49 510.71 533.75 504.98 530.59 499.28 528.04 493.6 525.06 485.3 522.45 468.73 522.64 460.35 523.02 454.81 523.76 449.14 524.82 443.34 525.74 437.58 526.81 431.66 527.97 425.59 528.77 419.53 529.51 413.29 530.14 406.88 530.24 400.47 530.15 393.89 529.86 387.13 529 380.38 527.98 373.62 526.84 366.89 525.28 360.15 523.75 353.45 522.31 346.81 520.67 340.19 519.3 333.64 518.25 327.21 517.26 320.81 516.74 314.55 516.74 308.46 517.43 299.52 522.51 282.93 526.96 275.4 530.53 270.61 534.72 266.14 539.47 262.03 544.58 258.06 550.19 254.45 556.23 251.22 562.54 248.11 569.21 245.37 576.16 243 583.29 240.68 590.63 238.7 598.11 237.01 605.7 235.3 613.39 233.81 621.12 232.53 628.89 231.09 636.68 229.77 644.45 228.53 652.23 227.01 659.99 225.5 667.69 223.97 675.39 222.09 683.05 220.15 690.63 218.17 698.22 215.83 705.74 213.48 713.17 211.14 720.62 208.55 727.97 206.08 735.21 203.8" stroke-dasharray="3 5" transform="rotate(60.94117647058823, 711, 400)" opacity="0.93"></path><path d="M694.77 253.4C704.62 249.7 713.39 247.24 721.07 246.16 728.73 245.61 735.36 246.73 741.05 249.46 746.93 252.93 752.18 257.94 757.08 264.26 762.68 271.15 768.5 279.1 774.89 287.85 782.66 296.85 791.55 306.43 801.71 316.37 813.46 326.35 826.41 336.59 840.11 346.95 854.4 357.28 868.31 367.72 880.83 378.16 891.76 388.59 899.67 399.03 903.61 409.38 904.18 419.72 900.34 429.45 892.71 438.48 882.66 447.48 870.17 455.72 856.27 463.1 842.03 470.41 827.73 476.83 814.03 482.33 801.4 487.8 789.85 492.44 779.44 496.31 770.33 500.41 762.06 504.01 754.38 507.26 747.53 511.18 740.74 515.09 733.74 519.09 727.06 524.07 719.8 529.25 711.82 534.5 703.89 540.46 695.1 546.12 685.48 551.02 675.87 555.74 665.93 558.8 655.9 560.02 646 560.29 636.18 558.5 626.75 554.8 617.65 550.13 609.16 543.8 601.61 536.15 594.6 527.97 588.74 518.86 584.26 509.16 580.41 499.37 577.97 489.23 576.99 478.96 576.35 468.79 576.88 458.54 578.4 448.3 579.54 438.17 581.11 427.99 582.85 417.83 583.36 407.71 583.53 397.54 583.26 387.41 581.4 377.28 579.3 367.66 577.17 358.63 574.17 349.63 571.79 341.27 570.3 333.67 568.88 326.12 568.87 319.37 570.34 313.49 572.49 307.64 576.28 302.61 581.56 298.41 587.62 294.06 595 290.34 603.4 287.18 612.38 283.55 622.11 280.2 632.26 277.06 642.72 273.15 653.37 269.3 663.89 265.56 674.54 261.12 684.92 256.97 694.77 253.4" stroke-dasharray="3 2" transform="rotate(65.29411764705883, 711, 400)" opacity="0.79"></path><path d="M679.29 303.01C685.6 300.4 691.94 298.57 698.28 297.53 704.67 296.64 711.15 296.66 717.71 297.54 724.46 298.7 731.44 300.74 738.66 303.6 746.19 306.74 754.08 310.63 762.29 315.17 770.85 319.92 779.72 325.23 788.74 330.98 797.93 336.86 807.06 343.1 815.82 349.57 824.3 356.1 831.99 362.81 838.52 369.59 844.14 376.39 848.15 383.22 850.22 389.99 850.91 396.76 849.5 403.14 846.21 409.1 841.77 415.06 835.78 420.62 828.61 425.75 820.81 430.93 812.24 435.74 803.24 440.19 794.12 444.77 784.88 449.06 775.75 453.1 766.78 457.36 758.03 461.46 749.62 465.4 741.44 469.67 733.56 473.84 726.01 477.88 718.63 482.25 711.48 486.47 704.6 490.41 697.78 494.55 691.14 498.28 684.74 501.42 675.4 505.54 659.43 508.46 652.96 507.09 647.21 504.13 639.34 493.17 637.27 485.63 636.1 480.18 635.59 474.22 635.69 467.9 635.57 461.48 635.91 454.77 636.61 447.92 636.83 441.03 637.21 434.03 637.68 427.04 637.42 420.04 637.07 413.06 636.65 406.19 635.38 399.31 634.12 392.86 632.92 386.87 630.36 378.09 626.61 362.66 626 355.96 626.07 349.48 630.32 337.92 634.51 332.67 639.63 327.21 653.24 316.82 661.39 311.97 666.99 308.58 672.98 305.55 679.29 303.01" stroke-dasharray="6 10" transform="rotate(69.6470588235294, 711, 400)" opacity="0.78"></path></g></svg>